<?xml version="1.0" encoding="UTF-8"?>
<svg width="10.583mm" height="10.583mm" version="1.1" viewBox="0 0 10.583 10.583" xmlns="http://www.w3.org/2000/svg">
 <g transform="translate(-88.635 -61.913)">
  <g transform="matrix(1.1765 0 0 1.1765 41.883 -61.41)">
   <g stroke-width=".85">
    <g transform="matrix(1.2095 0 0 1.2095 -8.3264 -21.963)" stroke-linecap="square" stroke-width=".70276">
     <path d="m39.74 104.82h7.4375v7.4375h-7.4375z" fill="#f9f9f9" stroke-width=".35138" style="paint-order:markers stroke fill"/>
     <path d="m40.094 105.18v6.7285h6.7285v-6.7285zm0.21094 0.21094h6.3066v6.3066h-6.3066z" color="#000000" style="-inkscape-stroke:none;paint-order:markers stroke fill"/>
     <path d="m40.199 105.28h6.518v6.518h-6.518z" color="#000000" fill="#f9f9f9" style="-inkscape-stroke:none;paint-order:markers stroke fill"/>
    </g>
   </g>
   <g transform="matrix(1.2095 0 0 1.2095 -8.3264 -21.93)" stroke-width=".18594">
    <path d="m41.372 106.29q0 0.0759-0.037 0.1423-0.037 0.0654-0.1015 0.10245-0.07115 0.037-0.13945 0.037h-0.48381v-0.94864h0.44017q0.06166 0 0.09297 8e-3t0.0702 0.0294q0.05976 0.0322 0.09486 0.0939t0.0351 0.13186q0 0.11005-0.07779 0.18214 0.10625 0.0873 0.10625 0.22198zm-0.21439-0.40412q0-0.073-0.08633-0.073h-0.2751v0.16127h0.25708q0.04553 0 0.07494-0.0256t0.02941-0.0626zm0.02846 0.40412q0-0.0825-0.06261-0.11288-0.02561-0.0133-0.07305-0.0133h-0.25423v0.21819h0.28174q0.05217 0 0.07968-0.0237 0.02846-0.0247 0.02846-0.0683zm1.2569 0.28175h-0.20301l-0.08917-0.22198h-0.37376l-0.09012 0.22198h-0.20111l0.3804-0.94864h0.19637zm-0.36807-0.41076-0.1053-0.26562-0.11573 0.26562zm1.2655-0.0636q-0.02561 0.49044-0.37661 0.49044-0.13091 0-0.22198-0.0721-0.09107-0.073-0.12901-0.18024-0.03795-0.10815-0.03795-0.23716 0-0.12996 0.03795-0.23716t0.12901-0.17834q0.09107-0.0721 0.22198-0.0721 0.11858 0 0.2068 0.0626 0.08917 0.0617 0.13471 0.1717l-0.17645 0.0664q-0.04553-0.11194-0.16506-0.11194-0.07589 0-0.12237 0.0493t-0.06071 0.11004q-0.01328 0.0607-0.01328 0.1385 0 0.0569 0.0076 0.1053 0.0085 0.0484 0.02846 0.0958 0.02087 0.0465 0.06071 0.074 0.04079 0.0275 0.09961 0.0275 0.11478 0 0.16506-0.11288h-0.11194v-0.18973zm0.98278 0q0 0.22483-0.10814 0.35763-0.1072 0.13281-0.28649 0.13281-0.1034 0-0.18214-0.0408-0.07874-0.0417-0.12522-0.11194-0.04553-0.0702-0.0683-0.15557-0.02277-0.0854-0.02277-0.18214 0-0.22293 0.10625-0.35479 0.1072-0.13186 0.29218-0.13186 0.1736 0 0.28364 0.13471 0.11099 0.1347 0.11099 0.35194zm-0.18593-3e-3q0-0.29502-0.2087-0.29502t-0.2087 0.29787q0 0.14419 0.05407 0.22388 0.05407 0.0787 0.15463 0.0787 0.09676 0 0.15273-0.0825t0.05597-0.22293zm1.1754 0.47717h-0.16127l-0.41455-0.60713v0.60713h-0.18593v-0.94864h0.18593l0.38989 0.58152v-0.58152h0.18593zm0.99322-0.47432q-0.02561 0.49044-0.37661 0.49044-0.13091 0-0.22198-0.0721-0.09107-0.073-0.12901-0.18024-0.03795-0.10815-0.03795-0.23716 0-0.12996 0.03795-0.23716t0.12901-0.17834q0.09107-0.0721 0.22198-0.0721 0.11858 0 0.2068 0.0626 0.08917 0.0617 0.13471 0.1717l-0.17645 0.0664q-0.04554-0.11194-0.16506-0.11194-0.07589 0-0.12237 0.0493t-0.06071 0.11004q-0.01328 0.0607-0.01328 0.1385 0 0.0569 0.0076 0.1053 0.0085 0.0484 0.02846 0.0958 0.02087 0.0465 0.06071 0.074 0.04079 0.0275 0.09961 0.0275 0.11478 0 0.16506-0.11288h-0.11194v-0.18973z" aria-label="BAGONG "/>
    <path d="m41.311 111.16q0 0.0698-0.03404 0.13092-0.03404 0.0602-0.09339 0.0943-0.06546 0.034-0.1283 0.034h-0.44511v-0.87275h0.40496q0.05673 0 0.08553 7e-3t0.06458 0.0271q0.05498 0.0297 0.08728 0.0864 0.03229 0.0567 0.03229 0.12131 0 0.10124-0.07157 0.16757 0.09775 0.0803 0.09775 0.20422zm-0.19724-0.37179q0-0.0672-0.07942-0.0672h-0.2531v0.14837h0.23652q0.04189 0 0.06895-0.0236 0.02705-0.0236 0.02705-0.0576zm0.02618 0.37179q0-0.0759-0.0576-0.10385-0.02356-0.0122-0.0672-0.0122h-0.2339v0.20073h0.25921q0.048 0 0.07331-0.0218 0.02618-0.0227 0.02618-0.0628zm1.1564 0.25921h-0.18677l-0.08204-0.20422h-0.34386l-0.08291 0.20422h-0.18502l0.34997-0.87275h0.18066zm-0.33863-0.3779-0.09688-0.24437-0.10648 0.24437zm1.1957 0.3779h-0.14837l-0.38139-0.55856v0.55856h-0.17106v-0.87275h0.17106l0.3587 0.535v-0.535h0.17106zm0.94519-0.43637q0 0.19811-0.11782 0.31768-0.11695 0.11869-0.31245 0.11869h-0.27055v-0.87275h0.27055q0.19637 0 0.31332 0.12044 0.11695 0.11957 0.11695 0.31594zm-0.23826 0.19287q0.0672-0.0689 0.0672-0.192 0-0.12393-0.0672-0.19288-0.06633-0.0698-0.1824-0.0698h-0.1091v0.52365h0.1091q0.11608 0 0.1824-0.069zm0.62227 0.2435h-0.17455v-0.87275h0.17455zm0.89021 0h-0.64584v-0.87275h0.17106v0.7078h0.47478zm0.93297 0h-0.18677l-0.08204-0.20422h-0.34386l-0.08291 0.20422h-0.18502l0.34997-0.87275h0.18066zm-0.33863-0.3779-0.09688-0.24437-0.10648 0.24437z" aria-label="BANDILA"/>
   </g>
  </g>
 </g>
</svg>
