<?xml version="1.0" encoding="UTF-8" standalone="no"?>
<svg
   width="9.055mm"
   height="9.0552mm"
   version="1.1"
   viewBox="0 0 9.055 9.0552"
   xml:space="preserve"
   id="svg5"
   sodipodi:docname="shield_fsa_cl.svg"
   inkscape:version="1.3 (0e150ed, 2023-07-21)"
   xmlns:inkscape="http://www.inkscape.org/namespaces/inkscape"
   xmlns:sodipodi="http://sodipodi.sourceforge.net/DTD/sodipodi-0.dtd"
   xmlns="http://www.w3.org/2000/svg"
   xmlns:svg="http://www.w3.org/2000/svg"><defs
     id="defs5"><clipPath
       id="clip0"><rect
         x="1705"
         y="751"
         width="1585"
         height="1591"
         id="rect1" /></clipPath><clipPath
       id="clip0-3"><rect
         x="1631"
         y="275"
         width="1036"
         height="1040"
         id="rect1-8" /></clipPath><clipPath
       id="clip0-38"><rect
         x="-1567"
         y="632"
         width="1709"
         height="1710"
         id="rect1-0" /></clipPath><clipPath
       id="clip0-8"><rect
         x="2415"
         y="169"
         width="1036"
         height="1036"
         id="rect1-02" /></clipPath><clipPath
       id="clip1"><rect
         x="-0.45454499"
         y="-2770.8201"
         width="490451"
         height="346364"
         id="rect2" /></clipPath><clipPath
       id="clip3"><rect
         x="1088360"
         y="1891850"
         width="487602"
         height="340822"
         id="rect3" /></clipPath><clipPath
       id="clip0-39"><rect
         x="2869"
         y="527"
         width="1036"
         height="1040"
         id="rect1-05" /></clipPath></defs><sodipodi:namedview
     id="namedview5"
     pagecolor="#ffffff"
     bordercolor="#000000"
     borderopacity="0.25"
     inkscape:showpageshadow="2"
     inkscape:pageopacity="0.0"
     inkscape:pagecheckerboard="0"
     inkscape:deskcolor="#d1d1d1"
     inkscape:document-units="mm"
     inkscape:zoom="9.8841882"
     inkscape:cx="26.254053"
     inkscape:cy="33.841929"
     inkscape:window-width="1520"
     inkscape:window-height="916"
     inkscape:window-x="1040"
     inkscape:window-y="294"
     inkscape:window-maximized="0"
     inkscape:current-layer="svg5" /><g
     clip-path="url(#clip0-39)"
     transform="matrix(0.00878057,0,0,0.00878057,-25.196655,-4.6551382)"
     id="g2"><rect
       x="2885"
       y="544"
       width="1006"
       height="1005"
       stroke="#000000"
       stroke-width="27.5"
       stroke-linecap="butt"
       stroke-linejoin="miter"
       stroke-miterlimit="8"
       stroke-opacity="1"
       fill="#ffffff"
       fill-opacity="1"
       id="rect2-2" /><path
       d="m 3575.75,653.333 -10.63,29.293 h 21.48 z m -226.76,0 -10.63,29.293 h 21.47 z m -126.64,-17.769 h 15.89 v 64.993 h 39.51 v 13.3 h -55.4 z m 528.73,-0.646 h 15.89 v 31.069 h 31.14 V 634.918 H 3814 v 78.939 h -15.89 v -34.516 h -31.14 v 34.516 h -15.89 z m -183.54,0 h 16.8 l 31.51,78.939 h -17.28 l -6.87,-17.931 h -31.46 l -6.5,17.931 h -16.86 z m -143.12,0 h 23.78 l 14.28,53.846 14.12,-53.846 h 23.83 v 78.939 h -14.76 v -62.139 l -15.62,62.139 h -15.3 l -15.57,-62.139 v 62.139 h -14.76 z m -83.64,0 h 16.8 l 31.51,78.939 h -17.28 l -6.88,-17.931 h -31.45 l -6.5,17.931 h -16.86 z m 338.15,-1.346 c 9.88,0 17.31,2.172 22.31,6.516 4.99,4.343 7.61,10.141 7.86,17.392 l -15.89,0.7 c -0.68,-4.057 -2.14,-6.973 -4.37,-8.75 -2.24,-1.777 -5.6,-2.666 -10.07,-2.666 -4.62,0 -8.23,0.952 -10.84,2.854 -1.69,1.221 -2.53,2.854 -2.53,4.9 0,1.867 0.79,3.464 2.37,4.792 2,1.687 6.87,3.447 14.6,5.277 7.73,1.831 13.44,3.725 17.15,5.681 3.7,1.957 6.6,4.631 8.7,8.023 2.09,3.392 3.14,7.584 3.14,12.573 0,4.523 -1.26,8.759 -3.76,12.708 -2.51,3.949 -6.05,6.883 -10.63,8.804 -4.58,1.921 -10.29,2.881 -17.13,2.881 -9.95,0 -17.59,-2.307 -22.92,-6.92 -5.33,-4.612 -8.52,-11.334 -9.56,-20.165 l 15.47,-1.508 c 0.93,5.206 2.81,9.028 5.66,11.469 2.84,2.442 6.68,3.662 11.52,3.662 5.11,0 8.97,-1.086 11.56,-3.258 2.6,-2.171 3.9,-4.711 3.9,-7.619 0,-1.866 -0.55,-3.455 -1.64,-4.765 -1.09,-1.31 -3,-2.45 -5.72,-3.42 -1.86,-0.646 -6.1,-1.794 -12.72,-3.446 -8.52,-2.117 -14.5,-4.72 -17.93,-7.807 -4.83,-4.344 -7.25,-9.639 -7.25,-15.885 0,-4.02 1.14,-7.781 3.41,-11.28 2.27,-3.501 5.55,-6.166 9.82,-7.997 4.28,-1.831 9.44,-2.746 15.49,-2.746 z m -529.48,0 c 9.63,0 17.45,2.854 23.46,8.562 3.58,3.374 6.26,8.22 8.05,14.538 l -15.73,3.769 c -0.93,-4.092 -2.87,-7.323 -5.82,-9.692 -2.96,-2.369 -6.54,-3.554 -10.77,-3.554 -5.83,0 -10.56,2.1 -14.2,6.3 -3.63,4.2 -5.45,11.003 -5.45,20.408 0,9.979 1.79,17.087 5.37,21.323 3.58,4.236 8.23,6.354 13.96,6.354 4.22,0 7.86,-1.346 10.9,-4.039 3.04,-2.692 5.22,-6.928 6.55,-12.707 l 15.41,4.9 c -2.37,8.615 -6.29,15.014 -11.79,19.196 -5.49,4.182 -12.46,6.273 -20.91,6.273 -10.45,0 -19.04,-3.581 -25.77,-10.742 -6.72,-7.162 -10.09,-16.953 -10.09,-29.373 0,-13.139 3.38,-23.343 10.15,-30.612 6.76,-7.269 15.65,-10.904 26.68,-10.904 z M 2885,546 h 255.23 L 2885,802 Z"
       fill="#000000"
       fill-rule="evenodd"
       fill-opacity="1"
       id="path2" /></g></svg>
