<?xml version="1.0" encoding="UTF-8" standalone="no"?>
<svg
   width="30"
   height="25"
   viewBox="0 0 7.938 6.615"
   version="1.1"
   id="svg3"
   sodipodi:docname="shield_fsa_fs.svg"
   inkscape:version="1.3 (0e150ed, 2023-07-21)"
   xmlns:inkscape="http://www.inkscape.org/namespaces/inkscape"
   xmlns:sodipodi="http://sodipodi.sourceforge.net/DTD/sodipodi-0.dtd"
   xmlns="http://www.w3.org/2000/svg"
   xmlns:svg="http://www.w3.org/2000/svg">
  <defs
     id="defs3" />
  <sodipodi:namedview
     id="namedview3"
     pagecolor="#ffffff"
     bordercolor="#000000"
     borderopacity="0.25"
     inkscape:showpageshadow="2"
     inkscape:pageopacity="0.0"
     inkscape:pagecheckerboard="0"
     inkscape:deskcolor="#d1d1d1"
     inkscape:zoom="11.8"
     inkscape:cx="12.5"
     inkscape:cy="10"
     inkscape:window-width="1200"
     inkscape:window-height="1103"
     inkscape:window-x="1358"
     inkscape:window-y="255"
     inkscape:window-maximized="0"
     inkscape:current-layer="svg3" />
  <g
     transform="matrix(0.58709372,0,0,0.57109539,-48.561419,-14.226396)"
     id="g6">
    <path
       transform="matrix(0.61075,0,0,0.61075,45.464,20.334)"
       d="M 77.253,25.996 H 66.895 l -5.1788,-8.9699 5.1788,-8.9699 10.358,5e-7 5.1788,8.9698995 z"
       fill="#ffffff"
       stroke="#003e86"
       stroke-linecap="square"
       stroke-width="0.81866"
       style="paint-order:markers stroke fill"
       id="path1" />
    <g
       transform="translate(-0.048042,-0.093588)"
       id="g3">
      <path
         d="m 86.428,25.526 h 6.1748 l 1.0817,2.0009 h -8.3053 z"
         fill="#960000"
         style="paint-order:markers stroke fill"
         id="path2" />
      <path
         d="m 86.787,26.284 v 0.24865 h 0.29565 v 0.16374 H 86.787 v 0.44272 h -0.16071 v -1.0158 h 0.63072 v 0.16071 z m 0.62011,0.85511 v -1.0158 h 0.59888 v 0.16071 h -0.43817 v 0.24865 h 0.29565 v 0.16374 h -0.29565 v 0.27897 h 0.47001 v 0.16374 z m 1.4934,-0.50943 q 0,0.15313 -0.047,0.26988 -0.04548,0.11523 -0.13191,0.18194 -0.02881,0.02729 -0.06823,0.04094 -0.0379,0.01365 -0.07733,0.01668 h -0.36691 v -1.0158 h 0.32749 q 0.0379,0 0.06519,0.003 0.02881,0.0015 0.05155,0.0076 0.02274,0.0061 0.04094,0.01668 0.01819,0.01061 0.03942,0.02577 0.08036,0.06974 0.12281,0.18649 0.04397,0.11523 0.04397,0.26684 z m -0.16375,0 q 0,-0.1031 -0.02274,-0.18346 -0.02123,-0.08036 -0.05913,-0.11978 -0.01971,-0.01819 -0.04548,-0.03032 -0.02577,-0.01213 -0.05761,-0.01213 h -0.18194 v 0.69137 h 0.16071 q 0.03942,0 0.06519,-0.0091 0.02729,-0.0091 0.04852,-0.03032 0.04548,-0.04548 0.06823,-0.12432 0.02426,-0.08036 0.02426,-0.18194 z m 0.3851,0.50943 v -1.0158 h 0.59888 v 0.16071 h -0.43817 v 0.24865 h 0.29565 v 0.16374 h -0.29565 v 0.27897 h 0.47001 v 0.16374 z m 1.3191,0 -0.16374,-0.44272 h -0.19255 v 0.44272 h -0.16071 v -1.0158 h 0.33507 q 0.05913,0 0.10158,0.0076 0.04245,0.0061 0.08036,0.02426 0.03336,0.01668 0.06065,0.04397 0.02881,0.02577 0.04852,0.06065 0.02123,0.03336 0.03184,0.07278 0.01213,0.0379 0.01213,0.07581 0,0.04094 -0.01213,0.08036 -0.01061,0.0379 -0.03184,0.07278 -0.01971,0.03336 -0.05003,0.06065 -0.02881,0.02729 -0.06368,0.04245 l 0.17891,0.47456 z m -0.0076,-0.73079 q 0,-0.03184 -0.01668,-0.06065 -0.01668,-0.02881 -0.047,-0.04548 -0.01971,-0.01061 -0.03639,-0.01365 -0.01668,-0.0045 -0.0561,-0.0045 h -0.19255 v 0.24865 h 0.19255 q 0.0379,0 0.05458,-0.003 0.01819,-0.003 0.0379,-0.01365 0.03032,-0.01668 0.047,-0.04549 0.01668,-0.03032 0.01668,-0.06216 z m 0.95215,0.73079 -0.10007,-0.28504 h -0.31688 l -0.10007,0.28504 h -0.17133 l 0.35023,-1.0158 h 0.1592 l 0.35023,1.0158 z m -0.25623,-0.73382 -0.10462,0.28504 h 0.20317 z m 0.58069,0.73382 v -1.0158 h 0.16071 v 0.86573 h 0.47001 v 0.1501 z"
         fill="#f9f9f9"
         stroke-width="0.26458"
         aria-label="FEDERAL"
         id="path3" />
    </g>
    <g
       transform="translate(-0.059308)"
       id="g5">
      <path
         d="m 92.647,35.986 h -6.1748 l -1.0817,-2.0009 h 8.3053 z"
         fill="#960000"
         style="paint-order:markers stroke fill"
         id="path4" />
      <path
         d="m 87.942,35.201 q 0,0.06974 -0.02577,0.12887 -0.02577,0.05913 -0.07429,0.1031 -0.04245,0.0379 -0.10007,0.05913 -0.0561,0.01971 -0.12129,0.01971 -0.13191,0 -0.22591,-0.06974 -0.09249,-0.07126 -0.14404,-0.188 l 0.15313,-0.0561 q 0.03184,0.07278 0.08794,0.1122 0.0561,0.0379 0.12887,0.0379 0.07126,0 0.11371,-0.04245 0.04397,-0.04397 0.04397,-0.10765 0,-0.05003 -0.02729,-0.08187 -0.02577,-0.03184 -0.06823,-0.05307 -0.04245,-0.02274 -0.094,-0.03942 -0.05003,-0.01668 -0.10007,-0.03639 -0.02274,-0.0091 -0.0561,-0.02578 -0.03336,-0.01668 -0.0652,-0.04548 -0.03032,-0.03032 -0.05307,-0.07429 -0.02123,-0.04397 -0.02123,-0.10765 0,-0.07429 0.02426,-0.12584 0.02426,-0.05307 0.0652,-0.0849 0.04245,-0.03336 0.10007,-0.04852 0.05913,-0.01516 0.12736,-0.01516 0.10765,0 0.17891,0.0561 0.07278,0.0561 0.11068,0.15162 l -0.14252,0.04245 q -0.01213,-0.02426 -0.03184,-0.04397 -0.01668,-0.01668 -0.047,-0.03032 -0.02881,-0.01365 -0.07126,-0.01516 -0.02729,-0.0015 -0.05761,0.0045 -0.02881,0.0045 -0.05155,0.01819 -0.02274,0.01365 -0.03639,0.0379 -0.01364,0.02274 -0.01061,0.05761 0.003,0.047 0.04094,0.07278 0.0379,0.02426 0.09249,0.04245 0.05458,0.01819 0.11674,0.0379 0.06368,0.01819 0.11674,0.05458 0.05307,0.03487 0.08794,0.09552 0.03639,0.05913 0.03639,0.1592 z m 0.47456,-0.58069 v 0.87331 h -0.16071 v -0.87331 h -0.23197 v -0.14252 h 0.62769 v 0.14252 z m 0.98399,0.87331 -0.10007,-0.28504 H 88.9836 l -0.10007,0.28504 H 88.7122 l 0.35023,-1.0158 h 0.1592 l 0.35023,1.0158 z M 89.14432,34.7598 89.0397,35.04484 h 0.20317 z m 0.88392,-0.13949 v 0.87331 h -0.16071 v -0.87331 h -0.23197 v -0.14252 h 0.62769 v 0.14252 z m 0.3851,0.87331 v -1.0158 h 0.59888 v 0.16071 h -0.43817 v 0.24865 h 0.29565 v 0.16375 h -0.29565 v 0.27897 h 0.47001 v 0.16374 z m 1.4222,-0.29262 q 0,0.06974 -0.02578,0.12887 -0.02577,0.05913 -0.07429,0.1031 -0.04245,0.0379 -0.10007,0.05913 -0.0561,0.01971 -0.12129,0.01971 -0.13191,0 -0.22591,-0.06974 -0.09248,-0.07126 -0.14404,-0.188 l 0.15313,-0.0561 q 0.03184,0.07278 0.08794,0.1122 0.0561,0.0379 0.12887,0.0379 0.07126,0 0.11371,-0.04245 0.04397,-0.04397 0.04397,-0.10765 0,-0.05003 -0.02729,-0.08187 -0.02577,-0.03184 -0.06823,-0.05307 -0.04245,-0.02274 -0.094,-0.03942 -0.05003,-0.01668 -0.10007,-0.03639 -0.02274,-0.0091 -0.0561,-0.02578 -0.03336,-0.01668 -0.0652,-0.04548 -0.03032,-0.03032 -0.05306,-0.07429 -0.02123,-0.04397 -0.02123,-0.10765 0,-0.07429 0.02426,-0.12584 0.02426,-0.05307 0.0652,-0.0849 0.04245,-0.03336 0.10007,-0.04852 0.05913,-0.01516 0.12736,-0.01516 0.10765,0 0.17891,0.0561 0.07278,0.0561 0.11068,0.15162 l -0.14252,0.04245 q -0.01213,-0.02426 -0.03184,-0.04397 -0.01668,-0.01668 -0.047,-0.03032 -0.02881,-0.01365 -0.07126,-0.01516 -0.02729,-0.0015 -0.05761,0.0045 -0.02881,0.0045 -0.05155,0.01819 -0.02274,0.01365 -0.03639,0.0379 -0.01364,0.02274 -0.01061,0.05761 0.003,0.047 0.04094,0.07278 0.0379,0.02426 0.09248,0.04245 0.05458,0.01819 0.11674,0.0379 0.06368,0.01819 0.11674,0.05458 0.05307,0.03487 0.08794,0.09552 0.03639,0.05913 0.03639,0.1592 z"
         fill="#f9f9f9"
         stroke-width="0.26458"
         aria-label="STATES"
         id="path5" />
    </g>
  </g>
</svg>
