<?xml version="1.0" encoding="UTF-8" standalone="no"?>
<svg
   width="9.055mm"
   height="9.0552mm"
   version="1.1"
   viewBox="0 0 9.055 9.0552"
   xml:space="preserve"
   id="svg5"
   sodipodi:docname="shield_fsa_rtc.svg"
   inkscape:version="1.3 (0e150ed, 2023-07-21)"
   xmlns:inkscape="http://www.inkscape.org/namespaces/inkscape"
   xmlns:sodipodi="http://sodipodi.sourceforge.net/DTD/sodipodi-0.dtd"
   xmlns="http://www.w3.org/2000/svg"
   xmlns:svg="http://www.w3.org/2000/svg"><defs
     id="defs5"><clipPath
       id="clip0"><rect
         x="1705"
         y="751"
         width="1585"
         height="1591"
         id="rect1" /></clipPath><clipPath
       id="clip0-3"><rect
         x="1631"
         y="275"
         width="1036"
         height="1040"
         id="rect1-8" /></clipPath></defs><sodipodi:namedview
     id="namedview5"
     pagecolor="#ffffff"
     bordercolor="#000000"
     borderopacity="0.25"
     inkscape:showpageshadow="2"
     inkscape:pageopacity="0.0"
     inkscape:pagecheckerboard="0"
     inkscape:deskcolor="#d1d1d1"
     inkscape:document-units="mm"
     inkscape:zoom="11.927041"
     inkscape:cx="17.9005"
     inkscape:cy="13.456816"
     inkscape:window-width="1512"
     inkscape:window-height="916"
     inkscape:window-x="2395"
     inkscape:window-y="378"
     inkscape:window-maximized="0"
     inkscape:current-layer="svg5" /><g
     clip-path="url(#clip0-3)"
     transform="matrix(0.00846799,0,0,0.00846799,-13.679425,-2.1705313)"
     id="g3"><path
       d="M 1646,340.506 C 1646,314.269 1667.27,293 1693.51,293 h 911.98 c 26.24,0 47.51,21.269 47.51,47.506 v 909.984 c 0,26.24 -21.27,47.51 -47.51,47.51 h -911.98 c -26.24,0 -47.51,-21.27 -47.51,-47.51 z"
       stroke="#ffffff"
       stroke-width="27.5"
       stroke-linecap="butt"
       stroke-linejoin="miter"
       stroke-miterlimit="8"
       stroke-opacity="1"
       fill="#592620"
       fill-rule="evenodd"
       fill-opacity="1"
       id="path1" /><path
       d="m 2187.17,982.803 20.32,-9.033 7.9,-20.326 29.35,-21.455 22.58,11.292 38.38,14.68 7.9,-10.163 -1.13,-22.584 v -20.326 l 10.16,-22.585 28.22,-5.646 18.06,16.939 14.68,11.292 23.7,-3.388 9.03,-6.775 18.06,4.517 15.81,9.033 -1.13,22.585 3.38,32.747 11.29,12.421 42.9,4.517 25.96,-14.68 44.02,-13.55 3.39,-466.365 -58.7,-45.169 -59.83,-40.652 22.58,76.787 -69.99,-49.686 -42.89,-28.23 -19.19,12.421 -68.86,29.36 -48.54,-1.129 -21.45,16.938 -39.5,18.067 -10.16,-4.516 -24.84,-10.163 -34.99,20.325 -20.32,13.551 13.55,45.169 -9.03,25.972 -32.74,-18.068 -50.8,10.163 -63.21,44.039 -29.35,11.292 -73.37,-6.775 -36.13,-2.258 -55.31,-1.129 10.16,18.067 71.12,56.461 -7.9,22.584 h -75.64 l 14.68,37.264 -12.42,32.747 v 21.455 l -16.93,19.197 25.96,12.421 46.28,23.714 111.76,44.039 28.22,-5.646 68.86,23.713 66.6,51.944 57.57,41.781 36.12,-7.904 z"
       stroke="#ffffff"
       stroke-width="18.3333"
       stroke-linecap="butt"
       stroke-linejoin="miter"
       stroke-miterlimit="8"
       stroke-opacity="1"
       fill="none"
       fill-rule="evenodd"
       id="path2" /><rect
       x="1910"
       y="768"
       width="698"
       height="386"
       fill="#592620"
       fill-opacity="1"
       id="rect2" /><path
       d="m 1994.52,856.749 v 88.884 h 52.1 c 14.74,0 26.06,-3.769 33.95,-11.308 7.89,-7.538 11.84,-18.495 11.84,-32.871 0,-13.674 -4.21,-24.544 -12.63,-32.608 -8.42,-8.064 -19.47,-12.097 -33.16,-12.097 z m 180.09,-49.438 h 179.47 v 46.809 h -64.21 v 305.57 h -51.05 V 854.12 h -64.21 z m -230.61,0 h 105.26 c 13.68,0 26.22,2.279 37.63,6.837 11.4,4.559 21.22,10.87 29.47,18.934 8.24,8.065 14.56,17.97 18.94,29.716 4.39,11.746 6.58,24.631 6.58,38.656 0,21.037 -4.21,38.919 -12.63,53.646 -8.42,14.726 -21.05,25.244 -37.89,31.556 l 50.52,173.034 h -52.1 l -46.84,-165.671 h -48.42 V 1159.69 H 1944 Z M 2500.43,801 c 14.38,0 27.54,3.068 39.47,9.204 11.93,6.136 21.93,14.989 30,26.56 6.66,8.765 11.57,17.706 14.73,26.822 3.16,9.117 5.62,21.739 7.37,37.868 h -50.52 c -5.27,-34.011 -19.3,-51.016 -42.11,-51.016 -10.17,0 -18.85,2.191 -26.05,6.574 -7.19,4.383 -12.98,11.396 -17.36,21.038 -4.39,9.642 -7.55,22.352 -9.48,38.13 -1.93,15.778 -2.89,35.063 -2.89,57.853 0,50.837 4.65,87.307 13.94,109.397 9.3,22.09 24.83,33.13 46.58,33.13 7.37,0 13.42,-1.4 18.16,-4.21 4.73,-2.8 8.59,-6.57 11.58,-11.3 2.98,-4.74 5,-10.17 6.05,-16.31 1.05,-6.13 1.58,-12.53 1.58,-19.19 H 2592 c -0.35,14.72 -2.81,28.22 -7.37,40.49 -4.56,12.28 -10.7,22.88 -18.42,31.82 -7.72,8.94 -16.93,15.87 -27.63,20.78 -10.7,4.91 -22.19,7.36 -34.47,7.36 -37.89,0 -65.52,-15.43 -82.89,-46.28 -17.37,-30.86 -26.05,-78.89 -26.05,-144.109 0,-57.502 8.77,-100.98 26.31,-130.432 17.55,-29.453 43.86,-44.179 78.95,-44.179 z"
       fill="#ffffff"
       fill-rule="evenodd"
       fill-opacity="1"
       id="path3" /></g></svg>
