<?xml version="1.0" encoding="UTF-8" standalone="no"?>
<svg
   width="26"
   height="31"
   version="1.1"
   viewBox="0 0 6.8791665 8.2020838"
   xml:space="preserve"
   id="svg5"
   sodipodi:docname="shield_fsa_wi.svg"
   inkscape:version="1.3 (0e150ed, 2023-07-21)"
   xmlns:inkscape="http://www.inkscape.org/namespaces/inkscape"
   xmlns:sodipodi="http://sodipodi.sourceforge.net/DTD/sodipodi-0.dtd"
   xmlns="http://www.w3.org/2000/svg"
   xmlns:svg="http://www.w3.org/2000/svg"><defs
     id="defs5"><clipPath
       id="clip0"><rect
         x="1705"
         y="751"
         width="1585"
         height="1591"
         id="rect1" /></clipPath><clipPath
       id="clip0-3"><rect
         x="1631"
         y="275"
         width="1036"
         height="1040"
         id="rect1-8" /></clipPath><clipPath
       id="clip0-2"><rect
         x="151"
         y="696"
         width="944"
         height="1128"
         id="rect1-6" /></clipPath></defs><sodipodi:namedview
     id="namedview5"
     pagecolor="#ffffff"
     bordercolor="#000000"
     borderopacity="0.25"
     inkscape:showpageshadow="2"
     inkscape:pageopacity="0.0"
     inkscape:pagecheckerboard="0"
     inkscape:deskcolor="#d1d1d1"
     inkscape:document-units="mm"
     inkscape:zoom="11.927041"
     inkscape:cx="30.812336"
     inkscape:cy="24.272575"
     inkscape:window-width="1520"
     inkscape:window-height="916"
     inkscape:window-x="1040"
     inkscape:window-y="322"
     inkscape:window-maximized="0"
     inkscape:current-layer="svg5" /><g
     clip-path="url(#clip0-2)"
     transform="matrix(0.00729074,0,0,0.00729074,-1.0852837,-5.0778092)"
     id="g3"><path
       d="m 168,938 h 911 v 435 c 0,240.24 -194.756,435 -435,435 H 603.001 C 362.756,1808 168,1613.24 168,1373 Z"
       stroke="#000000"
       stroke-width="27.5"
       stroke-linecap="butt"
       stroke-linejoin="miter"
       stroke-miterlimit="8"
       stroke-opacity="1"
       fill="#ffffff"
       fill-rule="evenodd"
       fill-opacity="1"
       id="path1" /><path
       d="m 224.566,715 h 797.864 c 31.24,0 56.57,25.325 56.57,56.566 V 938 H 168 V 771.566 C 168,740.325 193.326,715 224.566,715 Z"
       stroke="#000000"
       stroke-width="27.5"
       stroke-linecap="butt"
       stroke-linejoin="miter"
       stroke-miterlimit="8"
       stroke-opacity="1"
       fill="#299534"
       fill-rule="evenodd"
       fill-opacity="1"
       id="path2" /><path
       d="m 962.106,799.612 -14.285,39.446 h 28.859 z m -186.874,-8.266 c -8.802,0 -15.897,3.033 -21.284,9.1 -5.387,6.067 -8.081,15.215 -8.081,27.445 0,12.037 2.766,21.162 8.298,27.373 5.531,6.212 12.553,9.318 21.067,9.318 8.513,0 15.5,-3.082 20.959,-9.245 5.459,-6.163 8.189,-15.409 8.189,-27.736 0,-12.182 -2.658,-21.27 -7.973,-27.264 -5.315,-5.994 -12.373,-8.991 -21.175,-8.991 z M 951.067,774.813 H 973.65 L 1016,881.115 h -23.231 l -9.235,-24.147 h -42.279 l -8.729,24.147 h -22.655 z m -117.055,0 h 84.052 v 17.983 h -31.312 v 88.319 h -21.356 v -88.319 h -31.384 z m -311.995,0 h 78.424 v 17.983 h -57.068 v 23.566 h 53.1 v 17.91 h -53.1 v 28.932 h 59.089 v 17.911 h -80.445 z m -141.536,0 h 21.356 v 106.302 h -21.356 z m -150.481,0 h 21.861 l 15.944,73.019 19.336,-73.019 h 25.396 l 18.542,74.252 16.233,-74.252 h 21.5 l -25.684,106.302 h -22.655 l -21.067,-79.473 -20.995,79.473 H 255.252 Z M 775.015,773 c 15.584,0 28.054,4.858 37.409,14.575 9.355,9.717 14.033,23.228 14.033,40.534 0,17.161 -4.642,30.588 -13.925,40.28 -9.283,9.692 -21.692,14.539 -37.228,14.539 -15.728,0 -28.234,-4.822 -37.517,-14.467 -9.283,-9.643 -13.924,-22.925 -13.924,-39.844 0,-10.829 1.611,-19.917 4.833,-27.265 2.406,-5.414 5.688,-10.272 9.849,-14.575 4.16,-4.302 8.718,-7.493 13.671,-9.571 6.59,-2.804 14.19,-4.206 22.799,-4.206 z m -107.605,0 c 12.938,0 23.448,3.843 31.528,11.529 4.81,4.545 8.417,11.071 10.822,19.579 l -21.139,5.075 c -1.251,-5.511 -3.86,-9.861 -7.828,-13.052 -3.968,-3.19 -8.79,-4.785 -14.466,-4.785 -7.84,0 -14.201,2.827 -19.083,8.484 -4.882,5.655 -7.323,14.816 -7.323,27.481 0,13.439 2.405,23.011 7.215,28.715 4.81,5.704 11.063,8.556 18.758,8.556 5.676,0 10.558,-1.813 14.646,-5.438 4.089,-3.626 7.023,-9.33 8.802,-17.113 l 20.707,6.599 c -3.175,11.602 -8.454,20.218 -15.837,25.85 -7.383,5.632 -16.75,8.448 -28.101,8.448 -14.045,0 -25.588,-4.822 -34.631,-14.467 -9.043,-9.643 -13.564,-22.829 -13.564,-39.554 0,-17.693 4.545,-31.434 13.636,-41.223 C 640.643,777.895 652.595,773 667.41,773 Z m -208.032,0 c 13.275,0 23.267,2.925 29.977,8.774 6.71,5.849 10.233,13.656 10.569,23.421 l -21.355,0.943 c -0.914,-5.463 -2.874,-9.39 -5.88,-11.783 -3.006,-2.393 -7.515,-3.59 -13.528,-3.59 -6.205,0 -11.063,1.281 -14.574,3.843 -2.26,1.644 -3.391,3.844 -3.391,6.599 0,2.514 1.058,4.665 3.175,6.454 2.693,2.272 9.235,4.641 19.624,7.106 10.389,2.465 18.073,5.015 23.051,7.65 4.978,2.634 8.874,6.236 11.688,10.804 2.814,4.568 4.221,10.212 4.221,16.931 0,6.091 -1.684,11.796 -5.05,17.113 -3.367,5.318 -8.129,9.27 -14.286,11.856 -6.157,2.586 -13.828,3.879 -23.015,3.879 -13.371,0 -23.64,-3.106 -30.807,-9.318 -7.167,-6.211 -11.447,-15.263 -12.842,-27.155 l 20.778,-2.031 c 1.251,7.01 3.788,12.158 7.612,15.446 3.824,3.287 8.982,4.93 15.476,4.93 6.877,0 12.06,-1.462 15.547,-4.387 3.487,-2.925 5.231,-6.344 5.231,-10.26 0,-2.514 -0.733,-4.653 -2.2,-6.418 -1.468,-1.764 -4.029,-3.299 -7.684,-4.604 -2.501,-0.87 -8.201,-2.417 -17.099,-4.641 -11.448,-2.852 -19.48,-6.356 -24.097,-10.514 -6.494,-5.849 -9.74,-12.979 -9.74,-21.391 0,-5.414 1.527,-10.478 4.581,-15.191 3.054,-4.713 7.455,-8.302 13.203,-10.768 5.748,-2.465 12.686,-3.698 20.815,-3.698 z"
       fill="#ffffff"
       fill-rule="evenodd"
       fill-opacity="1"
       id="path3" /></g></svg>
