<?xml version="1.0" encoding="UTF-8" standalone="no"?>
<svg
   width="9.055mm"
   height="9.0552mm"
   version="1.1"
   viewBox="0 0 9.055 9.0552"
   xml:space="preserve"
   id="svg5"
   sodipodi:docname="shield_fsa_rp.svg"
   inkscape:version="1.3 (0e150ed, 2023-07-21)"
   xmlns:inkscape="http://www.inkscape.org/namespaces/inkscape"
   xmlns:sodipodi="http://sodipodi.sourceforge.net/DTD/sodipodi-0.dtd"
   xmlns="http://www.w3.org/2000/svg"
   xmlns:svg="http://www.w3.org/2000/svg"><defs
     id="defs5"><clipPath
       id="clip0"><rect
         x="1705"
         y="751"
         width="1585"
         height="1591"
         id="rect1" /></clipPath><clipPath
       id="clip0-3"><rect
         x="1631"
         y="275"
         width="1036"
         height="1040"
         id="rect1-8" /></clipPath><clipPath
       id="clip0-38"><rect
         x="-1567"
         y="632"
         width="1709"
         height="1710"
         id="rect1-0" /></clipPath><clipPath
       id="clip0-8"><rect
         x="2415"
         y="169"
         width="1036"
         height="1036"
         id="rect1-02" /></clipPath><clipPath
       id="clip1"><rect
         x="-0.45454499"
         y="-2770.8201"
         width="490451"
         height="346364"
         id="rect2" /></clipPath><clipPath
       id="clip3"><rect
         x="1088360"
         y="1891850"
         width="487602"
         height="340822"
         id="rect3" /></clipPath><clipPath
       id="clip0-39"><rect
         x="2869"
         y="527"
         width="1036"
         height="1040"
         id="rect1-05" /></clipPath><clipPath
       id="clip0-37"><rect
         x="1196"
         y="1301"
         width="1040"
         height="1041"
         id="rect1-9" /></clipPath></defs><sodipodi:namedview
     id="namedview5"
     pagecolor="#ffffff"
     bordercolor="#000000"
     borderopacity="0.25"
     inkscape:showpageshadow="2"
     inkscape:pageopacity="0.0"
     inkscape:pagecheckerboard="0"
     inkscape:deskcolor="#d1d1d1"
     inkscape:document-units="mm"
     inkscape:zoom="9.8841882"
     inkscape:cx="39.102857"
     inkscape:cy="30.402092"
     inkscape:window-width="1520"
     inkscape:window-height="916"
     inkscape:window-x="1040"
     inkscape:window-y="266"
     inkscape:window-maximized="0"
     inkscape:current-layer="svg5" /><g
     clip-path="url(#clip0-37)"
     transform="matrix(0.00861456,0,0,0.00861456,-10.214514,-11.152605)"
     id="g3"><path
       d="m 1212,1362.28 c 0,-23.9 19.38,-43.28 43.28,-43.28 h 920.44 c 23.9,0 43.28,19.38 43.28,43.28 v 918.44 c 0,23.9 -19.38,43.28 -43.28,43.28 h -920.44 c -23.9,0 -43.28,-19.38 -43.28,-43.28 z"
       stroke="#000000"
       stroke-width="27.5"
       stroke-linecap="butt"
       stroke-linejoin="miter"
       stroke-miterlimit="8"
       stroke-opacity="1"
       fill="#ffffff"
       fill-rule="evenodd"
       fill-opacity="1"
       id="path1" /><path
       d="m 1868.55,2181.22 v 19.37 h 11.4 c 7.4,0 12.01,-0.31 13.85,-0.94 1.84,-0.62 3.29,-1.7 4.33,-3.23 1.04,-1.52 1.56,-3.43 1.56,-5.73 0,-2.56 -0.69,-4.64 -2.06,-6.22 -1.37,-1.58 -3.31,-2.58 -5.8,-2.99 -1.25,-0.18 -5,-0.26 -11.25,-0.26 z m -148.94,0 v 50.56 h 11.51 c 4.31,0 7.42,-0.24 9.33,-0.73 2.5,-0.62 4.57,-1.68 6.22,-3.17 1.65,-1.5 2.99,-3.95 4.04,-7.37 1.04,-3.42 1.56,-8.08 1.56,-13.98 0,-5.91 -0.52,-10.44 -1.56,-13.6 -1.05,-3.16 -2.5,-5.62 -4.38,-7.39 -1.87,-1.77 -4.25,-2.97 -7.13,-3.59 -2.16,-0.49 -6.38,-0.73 -12.66,-0.73 z m -153.73,0 v 21.66 h 8.43 c 6.08,0 10.14,-0.4 12.19,-1.2 2.05,-0.8 3.66,-2.05 4.82,-3.75 1.16,-1.7 1.74,-3.68 1.74,-5.93 0,-2.78 -0.81,-5.07 -2.44,-6.88 -1.64,-1.8 -3.7,-2.93 -6.2,-3.38 -1.84,-0.35 -5.54,-0.52 -11.09,-0.52 z m -188.46,0 v 19.37 h 11.4 c 7.4,0 12.01,-0.31 13.85,-0.94 1.84,-0.62 3.29,-1.7 4.33,-3.23 1.04,-1.52 1.56,-3.43 1.56,-5.73 0,-2.56 -0.69,-4.64 -2.06,-6.22 -1.37,-1.58 -3.31,-2.58 -5.8,-2.99 -1.25,-0.18 -5,-0.26 -11.25,-0.26 z m 586.51,-1.04 c -6.36,0 -11.48,2.17 -15.37,6.53 -3.88,4.36 -5.83,10.93 -5.83,19.71 0,8.65 2,15.2 5.99,19.66 3.99,4.46 9.06,6.69 15.21,6.69 6.14,0 11.19,-2.21 15.13,-6.64 3.94,-4.42 5.91,-11.06 5.91,-19.92 0,-8.75 -1.92,-15.27 -5.76,-19.58 -3.83,-4.3 -8.93,-6.45 -15.28,-6.45 z m -307.58,0 c -6.35,0 -11.47,2.17 -15.36,6.53 -3.89,4.36 -5.83,10.93 -5.83,19.71 0,8.65 1.99,15.2 5.98,19.66 4,4.46 9.07,6.69 15.21,6.69 6.15,0 11.19,-2.21 15.13,-6.64 3.94,-4.42 5.91,-11.06 5.91,-19.92 0,-8.75 -1.92,-15.27 -5.75,-19.58 -3.84,-4.3 -8.93,-6.45 -15.29,-6.45 z m -153.79,0 c -6.35,0 -11.47,2.17 -15.36,6.53 -3.89,4.36 -5.83,10.93 -5.83,19.71 0,8.65 1.99,15.2 5.99,19.66 3.99,4.46 9.06,6.69 15.2,6.69 6.15,0 11.19,-2.21 15.13,-6.64 3.94,-4.42 5.91,-11.06 5.91,-19.92 0,-8.75 -1.91,-15.27 -5.75,-19.58 -3.84,-4.3 -8.93,-6.45 -15.29,-6.45 z m 350.57,-11.88 h 32.45 c 8.15,0 14.08,0.69 17.78,2.06 3.7,1.37 6.66,3.81 8.88,7.32 2.22,3.5 3.33,7.51 3.33,12.03 0,5.72 -1.68,10.45 -5.05,14.19 -3.37,3.73 -8.4,6.08 -15.1,7.05 3.33,1.95 6.08,4.08 8.25,6.41 2.17,2.32 5.1,6.46 8.78,12.39 l 9.32,14.9 h -18.44 l -11.14,-16.62 c -3.96,-5.93 -6.67,-9.67 -8.12,-11.22 -1.46,-1.54 -3.01,-2.6 -4.64,-3.18 -1.63,-0.57 -4.22,-0.85 -7.76,-0.85 h -3.12 v 31.87 h -15.42 z m -71.99,0 h 56.62 v 12.92 h -41.2 v 16.92 h 38.33 V 2211 h -38.33 v 20.78 h 42.65 v 12.87 h -58.07 z m -76.94,0 h 28.17 c 6.36,0 11.2,0.49 14.53,1.46 4.48,1.32 8.32,3.66 11.51,7.03 3.2,3.37 5.63,7.49 7.29,12.37 1.67,4.88 2.5,10.89 2.5,18.04 0,6.29 -0.78,11.7 -2.34,16.25 -1.91,5.56 -4.63,10.05 -8.18,13.49 -2.67,2.6 -6.28,4.63 -10.83,6.09 -3.4,1.08 -7.95,1.62 -13.64,1.62 h -29.01 z m -153.74,0 h 24.74 c 9.37,0 15.49,0.38 18.33,1.15 4.38,1.14 8.04,3.63 10.99,7.47 2.95,3.84 4.43,8.79 4.43,14.87 0,4.69 -0.85,8.63 -2.55,11.82 -1.71,3.19 -3.87,5.7 -6.49,7.52 -2.62,1.83 -5.28,3.03 -7.99,3.62 -3.68,0.73 -9.01,1.1 -15.99,1.1 h -10.05 v 28.8 h -15.42 z m -112.09,0 h 15.42 v 35.01 l 0.8,18.89 -0.8,22.45 h -15.42 z m -76.37,0 h 32.45 c 8.15,0 14.08,0.69 17.78,2.06 3.7,1.37 6.66,3.81 8.88,7.32 2.22,3.5 3.33,7.51 3.33,12.03 0,5.72 -1.68,10.45 -5.05,14.19 -3.37,3.73 -8.4,6.08 -15.1,7.05 3.33,1.95 6.08,4.08 8.25,6.41 2.17,2.32 5.1,6.46 8.78,12.39 l 9.32,14.9 h -18.44 l -11.14,-16.62 c -3.96,-5.93 -6.67,-9.67 -8.12,-11.22 -1.46,-1.54 -3.01,-2.6 -4.64,-3.18 -1.63,-0.57 -4.22,-0.85 -7.76,-0.85 h -3.12 v 31.87 H 1362 Z m 676.54,-1.3 c 9.59,0 16.8,2.1 21.64,6.3 4.85,4.2 7.39,9.81 7.63,16.82 l -15.41,0.68 c -0.66,-3.92 -2.08,-6.75 -4.25,-8.46 -2.17,-1.72 -5.42,-2.58 -9.76,-2.58 -4.48,0 -7.99,0.92 -10.52,2.76 -1.63,1.18 -2.45,2.76 -2.45,4.74 0,1.8 0.76,3.35 2.29,4.63 1.95,1.63 6.67,3.34 14.17,5.11 7.5,1.77 13.04,3.6 16.64,5.49 3.59,1.89 6.4,4.48 8.43,7.76 2.03,3.28 3.05,7.33 3.05,12.16 0,4.37 -1.22,8.47 -3.65,12.29 -2.43,3.82 -5.86,6.66 -10.31,8.51 -4.44,1.86 -9.98,2.79 -16.61,2.79 -9.65,0 -17.07,-2.23 -22.24,-6.69 -5.17,-4.46 -8.26,-10.96 -9.27,-19.5 l 15,-1.46 c 0.9,5.03 2.73,8.73 5.49,11.09 2.76,2.36 6.49,3.54 11.18,3.54 4.96,0 8.7,-1.05 11.22,-3.15 2.52,-2.1 3.77,-4.56 3.77,-7.37 0,-1.8 -0.53,-3.34 -1.58,-4.61 -1.06,-1.26 -2.91,-2.37 -5.55,-3.3 -1.81,-0.63 -5.92,-1.74 -12.34,-3.34 -8.27,-2.05 -14.07,-4.56 -17.4,-7.55 -4.69,-4.2 -7.03,-9.32 -7.03,-15.36 0,-3.89 1.1,-7.53 3.31,-10.91 2.2,-3.39 5.38,-5.96 9.53,-7.73 4.15,-1.77 9.16,-2.66 15.02,-2.66 z m -74.77,0 c 11.25,0 20.25,3.49 27,10.47 6.76,6.98 10.13,16.68 10.13,29.11 0,12.32 -3.35,21.97 -10.05,28.93 -6.7,6.96 -15.66,10.44 -26.87,10.44 -11.35,0 -20.38,-3.47 -27.08,-10.39 -6.7,-6.93 -10.05,-16.47 -10.05,-28.62 0,-7.77 1.16,-14.3 3.49,-19.58 1.73,-3.89 4.1,-7.38 7.11,-10.47 3,-3.09 6.29,-5.38 9.86,-6.87 4.76,-2.01 10.25,-3.02 16.46,-3.02 z m -307.57,0 c 11.24,0 20.25,3.49 27,10.47 6.75,6.98 10.13,16.68 10.13,29.11 0,12.32 -3.35,21.97 -10.05,28.93 -6.7,6.96 -15.66,10.44 -26.88,10.44 -11.35,0 -20.38,-3.47 -27.08,-10.39 -6.7,-6.93 -10.05,-16.47 -10.05,-28.62 0,-7.77 1.16,-14.3 3.49,-19.58 1.74,-3.89 4.11,-7.38 7.11,-10.47 3,-3.09 6.29,-5.38 9.87,-6.87 4.75,-2.01 10.24,-3.02 16.46,-3.02 z m -153.79,0 c 11.25,0 20.25,3.49 27,10.47 6.75,6.98 10.13,16.68 10.13,29.11 0,12.32 -3.35,21.97 -10.05,28.93 -6.7,6.96 -15.66,10.44 -26.87,10.44 -11.36,0 -20.39,-3.47 -27.09,-10.39 -6.7,-6.93 -10.05,-16.47 -10.05,-28.62 0,-7.77 1.17,-14.3 3.49,-19.58 1.74,-3.89 4.11,-7.38 7.11,-10.47 3,-3.09 6.29,-5.38 9.87,-6.87 4.76,-2.01 10.24,-3.02 16.46,-3.02 z"
       fill="#000000"
       fill-rule="evenodd"
       fill-opacity="1"
       id="path2" /><path
       d="m 1215.3,1515.63 107.19,21.74 h 50.23 l 40.18,-24.94 55.24,-16.62 57.76,-2.77 40.18,-44.34 47.72,-33.25 55.24,-19.4 58.66,33.89 50.94,56.91 44.43,36.03 49.38,11.72 62.78,-11.08 37.67,-22.17 27.62,2.77 35.16,24.94 40.18,24.94 57.76,-13.86 30.13,-27.71 52.74,-8.31 2.51,-127.47 -20.09,-33.25 -27.62,-19.4 h -904.04 l -40.18,16.63 -15.07,24.94 z"
       fill="#000000"
       fill-rule="evenodd"
       fill-opacity="1"
       id="path3" /></g></svg>
