<?xml version="1.0" encoding="UTF-8" standalone="no"?>
<svg
   width="25"
   height="20"
   viewBox="0 0 6.615 5.292"
   version="1.1"
   id="svg3"
   sodipodi:docname="shield_fsa_fs.svg"
   inkscape:version="1.3 (0e150ed, 2023-07-21)"
   xmlns:inkscape="http://www.inkscape.org/namespaces/inkscape"
   xmlns:sodipodi="http://sodipodi.sourceforge.net/DTD/sodipodi-0.dtd"
   xmlns="http://www.w3.org/2000/svg"
   xmlns:svg="http://www.w3.org/2000/svg">
  <defs
     id="defs3" />
  <sodipodi:namedview
     id="namedview3"
     pagecolor="#ffffff"
     bordercolor="#000000"
     borderopacity="0.25"
     inkscape:showpageshadow="2"
     inkscape:pageopacity="0.0"
     inkscape:pagecheckerboard="0"
     inkscape:deskcolor="#d1d1d1"
     inkscape:zoom="11.8"
     inkscape:cx="12.5"
     inkscape:cy="10"
     inkscape:window-width="1200"
     inkscape:window-height="1103"
     inkscape:window-x="70"
     inkscape:window-y="76"
     inkscape:window-maximized="0"
     inkscape:current-layer="svg3" />
  <path
     d="m 6.4066373,2.4070146 c 0.100872,0.1464051 0.100872,0.3312308 0,0.477637 L 5.0856053,4.9316662 C 4.9918314,5.0773049 4.815983,5.1647685 4.6283247,5.159112 H 1.9862594 C 1.7986,5.164812 1.6227551,5.0773009 1.5289789,4.9316662 L 0.20794568,2.8846516 c -0.10087151,-0.1464062 -0.10087151,-0.3312319 0,-0.477637 L 1.5035739,0.36000008 C 1.5973478,0.21436137 1.7731961,0.12689774 1.9608545,0.13255427 h 2.6674702 c 0.1876583,-0.005696 0.3635043,0.0818114 0.4572806,0.22744581 z"
     style="fill:#fff;fill-opacity:1;stroke:none;stroke-width:.2646;stroke-miterlimit:4;stroke-dasharray:none;stroke-opacity:1"
     id="path1" />
  <path
     style="fill:#bf2033;fill-opacity:1;stroke:none;stroke-width:0.240438;stroke-miterlimit:4;stroke-dasharray:none;stroke-opacity:1"
     d="m 4.6094611,5.1323102 c 0.1833361,0.00478 0.3552172,-0.069531 0.4468313,-0.1926205 l 0.59527,-0.8137236 H 0.94948402 L 1.5563667,4.9396897 c 0.091616,0.1230857 0.2634952,0.1974346 0.4468312,0.1926205 z"
     id="path4" />
  <path
     style="fill:#bf2033;fill-opacity:1;stroke:none;stroke-width:0.238392;stroke-miterlimit:4;stroke-dasharray:none;stroke-opacity:1"
     d="M 1.9607273,0.13225089 C 1.7730691,0.1276594 1.5971359,0.19902995 1.5033621,0.3172473 L 0.89405859,1.0987627 H 5.7069879 L 5.085798,0.3172473 C 4.9920218,0.19903344 4.8160909,0.12762736 4.6284328,0.13225089 Z"
     id="path2" />
  <path
     d="m 6.4066373,2.4070146 c 0.100872,0.1464051 0.100872,0.3312308 0,0.477637 L 5.0856053,4.9316662 C 4.9918314,5.0773049 4.815983,5.1647685 4.6283247,5.159112 H 1.9862594 C 1.7986,5.164812 1.6227551,5.0773009 1.5289789,4.9316662 L 0.20794568,2.8846516 c -0.10087151,-0.1464062 -0.10087151,-0.3312319 0,-0.477637 L 1.5035739,0.36000008 C 1.5973478,0.21436137 1.7731961,0.12689774 1.9608545,0.13255427 h 2.6674702 c 0.1876583,-0.005696 0.3635043,0.0818114 0.4572806,0.22744581 z"
     style="fill:none;fill-opacity:1;stroke:#141e55;stroke-width:0.26458333;stroke-miterlimit:4;stroke-dasharray:none;stroke-opacity:1"
     id="path3" />
</svg>
