<?xml version="1.0" encoding="UTF-8" standalone="no"?>
<svg
   width="26"
   height="31"
   version="1.1"
   viewBox="0 0 6.8791665 8.2020838"
   xml:space="preserve"
   id="svg5"
   sodipodi:docname="shield_fsa_pq.svg"
   inkscape:version="1.3 (0e150ed, 2023-07-21)"
   xmlns:inkscape="http://www.inkscape.org/namespaces/inkscape"
   xmlns:sodipodi="http://sodipodi.sourceforge.net/DTD/sodipodi-0.dtd"
   xmlns="http://www.w3.org/2000/svg"
   xmlns:svg="http://www.w3.org/2000/svg"><defs
     id="defs5"><clipPath
       id="clip0"><rect
         x="1705"
         y="751"
         width="1585"
         height="1591"
         id="rect1" /></clipPath><clipPath
       id="clip0-3"><rect
         x="1631"
         y="275"
         width="1036"
         height="1040"
         id="rect1-8" /></clipPath><clipPath
       id="clip0-2"><rect
         x="151"
         y="696"
         width="944"
         height="1128"
         id="rect1-6" /></clipPath><clipPath
       id="clip0-38"><rect
         x="3061"
         y="737"
         width="931"
         height="1110"
         id="rect1-0" /></clipPath></defs><sodipodi:namedview
     id="namedview5"
     pagecolor="#ffffff"
     bordercolor="#000000"
     borderopacity="0.25"
     inkscape:showpageshadow="2"
     inkscape:pageopacity="0.0"
     inkscape:pagecheckerboard="0"
     inkscape:deskcolor="#d1d1d1"
     inkscape:document-units="mm"
     inkscape:zoom="23.854082"
     inkscape:cx="18.047226"
     inkscape:cy="16.370364"
     inkscape:window-width="1520"
     inkscape:window-height="916"
     inkscape:window-x="1040"
     inkscape:window-y="266"
     inkscape:window-maximized="0"
     inkscape:current-layer="svg5" /><g
     clip-path="url(#clip0-38)"
     transform="matrix(0.00641267,0,0,0.00641267,-19.183113,-4.3114951)"
     id="g5"><path
       d="m 3072,912 h 911 v 466.5 c 0,251.57 -203.93,455.5 -455.5,455.5 -251.57,0 -455.5,-203.93 -455.5,-455.5 z"
       stroke="#000000"
       stroke-width="18.3333"
       stroke-linecap="butt"
       stroke-linejoin="miter"
       stroke-miterlimit="8"
       stroke-opacity="1"
       fill="#ffffff"
       fill-rule="evenodd"
       fill-opacity="1"
       id="path1" /><path
       d="m 3083.96,747 h 887.08 c 6.61,0 11.96,5.354 11.96,11.959 V 912 H 3072 V 758.959 c 0,-6.605 5.35,-11.959 11.96,-11.959 z"
       stroke="#000000"
       stroke-width="18.3333"
       stroke-linecap="butt"
       stroke-linejoin="miter"
       stroke-miterlimit="8"
       stroke-opacity="1"
       fill="#ffffff"
       fill-rule="evenodd"
       fill-opacity="1"
       id="path2" /><path
       d="m 3100,1367.5 c 0,-235 190.5,-425.5 425.5,-425.5 235,0 425.5,190.5 425.5,425.5 0,235 -190.5,425.5 -425.5,425.5 -235,0 -425.5,-190.5 -425.5,-425.5 z"
       fill="#000000"
       fill-rule="evenodd"
       fill-opacity="1"
       id="path3" /><path
       d="M 3187,1367.5 3332.75,1076 h 385.5 L 3864,1367.5 3718.25,1659 h -385.5 z"
       fill="#ffffff"
       fill-rule="evenodd"
       fill-opacity="1"
       id="path4" /><path
       d="m 3200.5,1368 140.25,-280.5 h 370.5 l 140.25,280.5 -140.25,280.5 h -370.5 z"
       stroke="#000000"
       stroke-width="4.58333"
       stroke-linecap="butt"
       stroke-linejoin="miter"
       stroke-miterlimit="8"
       stroke-opacity="1"
       fill="#ffffff"
       fill-rule="evenodd"
       fill-opacity="1"
       id="path5" /></g></svg>
