<?xml version="1.0" encoding="UTF-8"?>
<svg width="13.229mm" height="11.457mm" version="1.1" viewBox="0 0 13.229 11.457" xml:space="preserve" xmlns="http://www.w3.org/2000/svg"><g transform="translate(-82.869 -25.004)"><path transform="matrix(.61075 0 0 .61075 45.464 20.334)" d="m77.253 25.996h-10.358l-5.1788-8.9699 5.1788-8.9699 10.358 5e-7 5.1788 8.9699z" fill="#fff" stroke="#003e86" stroke-linecap="square" stroke-width=".81866" style="paint-order:markers stroke fill"/><g transform="translate(-.048042 -.093588)"><path d="m86.428 25.526h6.1748l1.0817 2.0009h-8.3053z" fill="#960000" style="paint-order:markers stroke fill"/><path d="m86.787 26.284v0.24865h0.29565v0.16374h-0.29565v0.44272h-0.16071v-1.0158h0.63072v0.16071zm0.62011 0.85511v-1.0158h0.59888v0.16071h-0.43817v0.24865h0.29565v0.16374h-0.29565v0.27897h0.47001v0.16374zm1.4934-0.50943q0 0.15313-0.047 0.26988-0.04548 0.11523-0.13191 0.18194-0.02881 0.02729-0.06823 0.04094-0.0379 0.01365-0.07733 0.01668h-0.36691v-1.0158h0.32749q0.0379 0 0.06519 3e-3 0.02881 0.0015 0.05155 0.0076t0.04094 0.01668q0.01819 0.01061 0.03942 0.02577 0.08036 0.06974 0.12281 0.18649 0.04397 0.11523 0.04397 0.26684zm-0.16375 0q0-0.1031-0.02274-0.18346-0.02123-0.08036-0.05913-0.11978-0.01971-0.01819-0.04548-0.03032t-0.05761-0.01213h-0.18194v0.69137h0.16071q0.03942 0 0.06519-0.0091 0.02729-0.0091 0.04852-0.03032 0.04548-0.04548 0.06823-0.12432 0.02426-0.08036 0.02426-0.18194zm0.3851 0.50943v-1.0158h0.59888v0.16071h-0.43817v0.24865h0.29565v0.16374h-0.29565v0.27897h0.47001v0.16374zm1.3191 0-0.16374-0.44272h-0.19255v0.44272h-0.16071v-1.0158h0.33507q0.05913 0 0.10158 0.0076 0.04245 0.0061 0.08036 0.02426 0.03336 0.01668 0.06065 0.04397 0.02881 0.02577 0.04852 0.06065 0.02123 0.03336 0.03184 0.07278 0.01213 0.0379 0.01213 0.07581 0 0.04094-0.01213 0.08036-0.01061 0.0379-0.03184 0.07278-0.01971 0.03336-0.05003 0.06065-0.02881 0.02729-0.06368 0.04245l0.17891 0.47456zm-0.0076-0.73079q0-0.03184-0.01668-0.06065t-0.047-0.04548q-0.01971-0.01061-0.03639-0.01365-0.01668-0.0045-0.0561-0.0045h-0.19255v0.24865h0.19255q0.0379 0 0.05458-3e-3 0.01819-3e-3 0.0379-0.01365 0.03032-0.01668 0.047-0.04549 0.01668-0.03032 0.01668-0.06216zm0.95215 0.73079-0.10007-0.28504h-0.31688l-0.10007 0.28504h-0.17133l0.35023-1.0158h0.1592l0.35023 1.0158zm-0.25623-0.73382-0.10462 0.28504h0.20317zm0.58069 0.73382v-1.0158h0.16071v0.86573h0.47001v0.1501z" fill="#f9f9f9" stroke-width=".26458" aria-label="FEDERAL"/></g><g transform="translate(-.059308)"><path d="m92.647 35.986h-6.1748l-1.0817-2.0009h8.3053z" fill="#960000" style="paint-order:markers stroke fill"/><path d="m87.942 35.201q0 0.06974-0.02577 0.12887-0.02577 0.05913-0.07429 0.1031-0.04245 0.0379-0.10007 0.05913-0.0561 0.01971-0.12129 0.01971-0.13191 0-0.22591-0.06974-0.09249-0.07126-0.14404-0.188l0.15313-0.0561q0.03184 0.07278 0.08794 0.1122 0.0561 0.0379 0.12887 0.0379 0.07126 0 0.11371-0.04245 0.04397-0.04397 0.04397-0.10765 0-0.05003-0.02729-0.08187-0.02577-0.03184-0.06823-0.05307-0.04245-0.02274-0.094-0.03942-0.05003-0.01668-0.10007-0.03639-0.02274-0.0091-0.0561-0.02578t-0.0652-0.04548q-0.03032-0.03032-0.05307-0.07429-0.02123-0.04397-0.02123-0.10765 0-0.07429 0.02426-0.12584 0.02426-0.05307 0.0652-0.0849 0.04245-0.03336 0.10007-0.04852 0.05913-0.01516 0.12736-0.01516 0.10765 0 0.17891 0.0561 0.07278 0.0561 0.11068 0.15162l-0.14252 0.04245q-0.01213-0.02426-0.03184-0.04397-0.01668-0.01668-0.047-0.03032-0.02881-0.01365-0.07126-0.01516-0.02729-0.0015-0.05761 0.0045-0.02881 0.0045-0.05155 0.01819-0.02274 0.01365-0.03639 0.0379-0.01364 0.02274-0.01061 0.05761 3e-3 0.047 0.04094 0.07278 0.0379 0.02426 0.09249 0.04245 0.05458 0.01819 0.11674 0.0379 0.06368 0.01819 0.11674 0.05458 0.05307 0.03487 0.08794 0.09552 0.03639 0.05913 0.03639 0.1592zm0.47456-0.58069v0.87331h-0.16071v-0.87331h-0.23197v-0.14252h0.62769v0.14252zm0.98399 0.87331-0.10007-0.28504h-0.31688l-0.10007 0.28504h-0.17133l0.35023-1.0158h0.1592l0.35023 1.0158zm-0.25623-0.73382-0.10462 0.28504h0.20317zm0.88392-0.13949v0.87331h-0.16071v-0.87331h-0.23197v-0.14252h0.62769v0.14252zm0.3851 0.87331v-1.0158h0.59888v0.16071h-0.43817v0.24865h0.29565v0.16375h-0.29565v0.27897h0.47001v0.16374zm1.4222-0.29262q0 0.06974-0.02578 0.12887-0.02577 0.05913-0.07429 0.1031-0.04245 0.0379-0.10007 0.05913-0.0561 0.01971-0.12129 0.01971-0.13191 0-0.22591-0.06974-0.09248-0.07126-0.14404-0.188l0.15313-0.0561q0.03184 0.07278 0.08794 0.1122 0.0561 0.0379 0.12887 0.0379 0.07126 0 0.11371-0.04245 0.04397-0.04397 0.04397-0.10765 0-0.05003-0.02729-0.08187-0.02577-0.03184-0.06823-0.05307-0.04245-0.02274-0.094-0.03942-0.05003-0.01668-0.10007-0.03639-0.02274-0.0091-0.0561-0.02578t-0.0652-0.04548q-0.03032-0.03032-0.05306-0.07429-0.02123-0.04397-0.02123-0.10765 0-0.07429 0.02426-0.12584 0.02426-0.05307 0.0652-0.0849 0.04245-0.03336 0.10007-0.04852 0.05913-0.01516 0.12736-0.01516 0.10765 0 0.17891 0.0561 0.07278 0.0561 0.11068 0.15162l-0.14252 0.04245q-0.01213-0.02426-0.03184-0.04397-0.01668-0.01668-0.047-0.03032-0.02881-0.01365-0.07126-0.01516-0.02729-0.0015-0.05761 0.0045-0.02881 0.0045-0.05155 0.01819-0.02274 0.01365-0.03639 0.0379-0.01364 0.02274-0.01061 0.05761 3e-3 0.047 0.04094 0.07278 0.0379 0.02426 0.09248 0.04245t0.11674 0.0379q0.06368 0.01819 0.11674 0.05458 0.05307 0.03487 0.08794 0.09552 0.03639 0.05913 0.03639 0.1592z" fill="#f9f9f9" stroke-width=".26458" aria-label="STATES"/></g></g></svg>
