<?xml version="1.0" encoding="UTF-8" standalone="no"?>
<svg
   width="9.055mm"
   height="9.0552mm"
   version="1.1"
   viewBox="0 0 9.055 9.0552"
   xml:space="preserve"
   id="svg5"
   sodipodi:docname="shield_fsa_mk.svg"
   inkscape:version="1.3 (0e150ed, 2023-07-21)"
   xmlns:inkscape="http://www.inkscape.org/namespaces/inkscape"
   xmlns:sodipodi="http://sodipodi.sourceforge.net/DTD/sodipodi-0.dtd"
   xmlns="http://www.w3.org/2000/svg"
   xmlns:svg="http://www.w3.org/2000/svg"><defs
     id="defs5"><clipPath
       id="clip0"><rect
         x="1705"
         y="751"
         width="1585"
         height="1591"
         id="rect1" /></clipPath><clipPath
       id="clip0-3"><rect
         x="1631"
         y="275"
         width="1036"
         height="1040"
         id="rect1-8" /></clipPath><clipPath
       id="clip0-38"><rect
         x="-1567"
         y="632"
         width="1709"
         height="1710"
         id="rect1-0" /></clipPath><clipPath
       id="clip0-8"><rect
         x="2415"
         y="169"
         width="1036"
         height="1036"
         id="rect1-02" /></clipPath><clipPath
       id="clip1"><rect
         x="-0.45454499"
         y="-2770.8201"
         width="490451"
         height="346364"
         id="rect2" /></clipPath><clipPath
       id="clip3"><rect
         x="1088360"
         y="1891850"
         width="487602"
         height="340822"
         id="rect3" /></clipPath></defs><sodipodi:namedview
     id="namedview5"
     pagecolor="#ffffff"
     bordercolor="#000000"
     borderopacity="0.25"
     inkscape:showpageshadow="2"
     inkscape:pageopacity="0.0"
     inkscape:pagecheckerboard="0"
     inkscape:deskcolor="#d1d1d1"
     inkscape:document-units="mm"
     inkscape:zoom="13.978353"
     inkscape:cx="20.424438"
     inkscape:cy="23.142927"
     inkscape:window-width="1520"
     inkscape:window-height="916"
     inkscape:window-x="1040"
     inkscape:window-y="294"
     inkscape:window-maximized="0"
     inkscape:current-layer="g8" /><g
     clip-path="url(#clip0-8)"
     transform="matrix(0.00867063,0,0,0.00867063,-20.907987,-1.4220479)"
     id="g8"><path
       d="M 2430,213.804 C 2430,197.896 2442.9,185 2458.8,185 h 949.4 c 15.9,0 28.8,12.896 28.8,28.804 V 1161.2 c 0,15.9 -12.9,28.8 -28.8,28.8 h -949.4 c -15.9,0 -28.8,-12.9 -28.8,-28.8 z"
       stroke="#b5a337"
       stroke-width="27.5"
       stroke-linecap="butt"
       stroke-linejoin="miter"
       stroke-miterlimit="8"
       stroke-opacity="1"
       fill="#31a8f7"
       fill-rule="evenodd"
       fill-opacity="1"
       id="path3" /><path
       d="m 2509,263 h 849 V 971.407 L 2928.8,1125 2509,971.407 Z"
       stroke="#b5a337"
       stroke-width="27.5"
       stroke-linecap="butt"
       stroke-linejoin="miter"
       stroke-miterlimit="8"
       stroke-opacity="1"
       fill="#ffffff"
       fill-rule="evenodd"
       fill-opacity="1"
       id="path4" /><path
       d="m 3215.88,331.838 -10.64,29.405 h 21.49 z m -271.58,0 -10.63,29.405 h 21.48 z m -185.63,0 -10.64,29.405 h 21.49 z m 448.99,-18.486 h 16.81 l 31.53,79.242 h -17.3 l -6.87,-18 h -31.48 l -6.5,18 h -16.86 z m -115.27,0 h 15.9 v 35.189 l 32.12,-35.189 h 21.38 l -29.65,30.864 31.26,48.378 h -20.57 l -21.65,-37.189 -12.89,13.243 v 23.946 h -15.9 z m -156.31,0 h 16.82 l 31.52,79.242 h -17.29 l -6.88,-18 h -31.47 l -6.5,18 h -16.87 z m -115.27,0 h 15.9 v 35.189 l 32.12,-35.189 h 21.38 l -29.65,30.864 31.26,48.378 h -20.57 l -21.65,-37.189 -12.89,13.243 v 23.946 h -15.9 z m -70.36,0 h 16.81 l 31.53,79.242 h -17.29 l -6.88,-18 h -31.48 l -6.49,18 h -16.87 z m -129.45,0 h 23.8 l 14.28,54.053 14.13,-54.053 h 23.85 v 79.242 h -14.77 v -62.378 l -15.63,62.378 h -15.31 l -12.65,-50.635 h -2.93 v 50.635 H 2621 Z M 3033.79,312 c 9.88,0 17.32,2.18 22.32,6.541 4.99,4.36 7.61,10.18 7.86,17.459 l -15.89,0.703 c -0.69,-4.072 -2.14,-7 -4.38,-8.784 -2.24,-1.784 -5.6,-2.676 -10.07,-2.676 -4.62,0 -8.24,0.955 -10.85,2.865 -1.69,1.226 -2.53,2.865 -2.53,4.919 0,1.874 0.79,3.478 2.37,4.811 2,1.693 6.87,3.459 14.61,5.297 7.73,1.838 13.45,3.739 17.16,5.703 3.7,1.964 6.6,4.649 8.7,8.054 2.09,3.405 3.14,7.612 3.14,12.621 0,4.541 -1.25,8.793 -3.76,12.757 -2.51,3.964 -6.05,6.91 -10.63,8.838 -4.59,1.928 -10.3,2.892 -17.14,2.892 -9.95,0 -17.6,-2.315 -22.93,-6.946 -5.34,-4.631 -8.53,-11.378 -9.57,-20.243 l 15.47,-1.514 c 0.93,5.226 2.82,9.063 5.67,11.514 2.85,2.45 6.69,3.676 11.52,3.676 5.12,0 8.98,-1.091 11.58,-3.271 2.59,-2.18 3.89,-4.73 3.89,-7.649 0,-1.873 -0.54,-3.468 -1.64,-4.783 -1.09,-1.315 -3,-2.46 -5.72,-3.433 -1.86,-0.649 -6.1,-1.802 -12.73,-3.459 -8.52,-2.126 -14.5,-4.739 -17.94,-7.838 -4.83,-4.36 -7.25,-9.676 -7.25,-15.946 0,-4.036 1.14,-7.811 3.41,-11.324 2.28,-3.513 5.55,-6.189 9.83,-8.027 4.28,-1.838 9.45,-2.757 15.5,-2.757 z"
       fill="#000000"
       fill-rule="evenodd"
       fill-opacity="1"
       id="path5" /><path
       d="m 2509,443 h 848.95"
       stroke="#b5a337"
       stroke-width="27.5"
       stroke-linecap="butt"
       stroke-linejoin="miter"
       stroke-miterlimit="8"
       stroke-opacity="1"
       fill="none"
       fill-rule="evenodd"
       id="path6" /></g></svg>
