<?xml version="1.0" encoding="UTF-8" standalone="no"?>
<svg
   width="9.055mm"
   height="9.0552mm"
   version="1.1"
   viewBox="0 0 9.055 9.0552"
   xml:space="preserve"
   id="svg5"
   sodipodi:docname="shield_fsa_mc.svg"
   inkscape:version="1.3 (0e150ed, 2023-07-21)"
   xmlns:inkscape="http://www.inkscape.org/namespaces/inkscape"
   xmlns:sodipodi="http://sodipodi.sourceforge.net/DTD/sodipodi-0.dtd"
   xmlns="http://www.w3.org/2000/svg"
   xmlns:svg="http://www.w3.org/2000/svg"><defs
     id="defs5"><clipPath
       id="clip0"><rect
         x="1705"
         y="751"
         width="1585"
         height="1591"
         id="rect1" /></clipPath><clipPath
       id="clip0-3"><rect
         x="1631"
         y="275"
         width="1036"
         height="1040"
         id="rect1-8" /></clipPath><clipPath
       id="clip0-38"><rect
         x="-1567"
         y="632"
         width="1709"
         height="1710"
         id="rect1-0" /></clipPath><clipPath
       id="clip0-8"><rect
         x="2415"
         y="169"
         width="1036"
         height="1036"
         id="rect1-02" /></clipPath><clipPath
       id="clip1"><rect
         x="-0.45454499"
         y="-2770.8201"
         width="490451"
         height="346364"
         id="rect2" /></clipPath><clipPath
       id="clip3"><rect
         x="1088360"
         y="1891850"
         width="487602"
         height="340822"
         id="rect3" /></clipPath><clipPath
       id="clip0-39"><rect
         x="2869"
         y="527"
         width="1036"
         height="1040"
         id="rect1-05" /></clipPath><clipPath
       id="clip0-37"><rect
         x="1196"
         y="1301"
         width="1040"
         height="1041"
         id="rect1-9" /></clipPath><clipPath
       id="clip0-4"><rect
         x="3212"
         y="696"
         width="1068"
         height="1068"
         id="rect1-91" /></clipPath></defs><sodipodi:namedview
     id="namedview5"
     pagecolor="#ffffff"
     bordercolor="#000000"
     borderopacity="0.25"
     inkscape:showpageshadow="2"
     inkscape:pageopacity="0.0"
     inkscape:pagecheckerboard="0"
     inkscape:deskcolor="#d1d1d1"
     inkscape:document-units="mm"
     inkscape:zoom="9.8841882"
     inkscape:cx="25.141164"
     inkscape:cy="10.066583"
     inkscape:window-width="1520"
     inkscape:window-height="916"
     inkscape:window-x="1040"
     inkscape:window-y="210"
     inkscape:window-maximized="0"
     inkscape:current-layer="g3" /><g
     clip-path="url(#clip0-37)"
     transform="matrix(0.00861456,0,0,0.00861456,-10.214514,-11.152605)"
     id="g3"><g
       clip-path="url(#clip0-4)"
       transform="matrix(0.98204474,0,0,0.98204474,-1969.7531,609.79429)"
       id="g21"><path
         d="M 3227,759.567 C 3227,734.953 3246.95,715 3271.57,715 h 946.86 c 24.62,0 44.57,19.953 44.57,44.567 v 945.863 c 0,24.62 -19.95,44.57 -44.57,44.57 h -946.86 c -24.62,0 -44.57,-19.95 -44.57,-44.57 z"
         stroke="#000000"
         stroke-width="27.5"
         stroke-linecap="butt"
         stroke-linejoin="miter"
         stroke-miterlimit="8"
         stroke-opacity="1"
         fill="#000000"
         fill-rule="evenodd"
         fill-opacity="1"
         id="path1" /><rect
         x="3281"
         y="965"
         width="927"
         height="734"
         fill="#ffffff"
         fill-opacity="1"
         id="rect2-7" /><rect
         x="3304"
         y="939"
         width="290"
         height="28.999901"
         fill="#ffffff"
         fill-opacity="1"
         id="rect3-5" /><rect
         x="3304"
         y="864"
         width="44"
         height="80.000099"
         fill="#ffffff"
         fill-opacity="1"
         id="rect4" /><rect
         x="3357"
         y="829"
         width="56"
         height="115"
         fill="#ffffff"
         fill-opacity="1"
         id="rect5" /><rect
         x="3424"
         y="896"
         width="54"
         height="58.999802"
         fill="#ffffff"
         fill-opacity="1"
         id="rect6" /><rect
         x="3490"
         y="813"
         width="45"
         height="133"
         fill="#ffffff"
         fill-opacity="1"
         id="rect7" /><rect
         x="3550"
         y="885"
         width="44"
         height="60.999802"
         fill="#ffffff"
         fill-opacity="1"
         id="rect8" /><path
         d="m 3356,829 28.5,-38 28.5,38 z"
         fill="#ffffff"
         fill-rule="evenodd"
         fill-opacity="1"
         id="path8" /><path
         d="m 3548,885 23,-23 23,23 z"
         fill="#ffffff"
         fill-rule="evenodd"
         fill-opacity="1"
         id="path9" /><path
         d="m 3600,939 23,-23 23,23 z"
         fill="#ffffff"
         fill-rule="evenodd"
         fill-opacity="1"
         id="path10" /><rect
         x="3581"
         y="936"
         width="63.000198"
         height="31.999901"
         fill="#ffffff"
         fill-opacity="1"
         id="rect10" /><rect
         x="3660"
         y="947"
         width="37.000198"
         height="24.000099"
         fill="#ffffff"
         fill-opacity="1"
         id="rect11" /><path
         d="m 3660,947 18.5,-30 18.5,30 z"
         fill="#ffffff"
         fill-rule="evenodd"
         fill-opacity="1"
         id="path11" /><path
         d="m 3727,886 c 0,-12.15 8.28,-22 18.5,-22 10.22,0 18.5,9.85 18.5,22 0,12.15 -8.28,22 -18.5,22 -10.22,0 -18.5,-9.85 -18.5,-22 z"
         fill="#ffffff"
         fill-rule="evenodd"
         fill-opacity="1"
         id="path12" /><rect
         x="3727"
         y="882"
         width="37.000198"
         height="89.000099"
         fill="#ffffff"
         fill-opacity="1"
         id="rect12" /><rect
         x="3781"
         y="925"
         width="56"
         height="46.000099"
         fill="#ffffff"
         fill-opacity="1"
         id="rect13" /><path
         d="m 3770,926 39,-29 39,29 z"
         fill="#ffffff"
         fill-rule="evenodd"
         fill-opacity="1"
         id="path13" /><rect
         x="3856"
         y="947"
         width="3"
         height="23.000099"
         fill="#ffffff"
         fill-opacity="1"
         id="rect14" /><rect
         x="3866"
         y="947"
         width="2.9997599"
         height="23.000099"
         fill="#ffffff"
         fill-opacity="1"
         id="rect15" /><rect
         x="3876"
         y="947"
         width="2.9997599"
         height="23.000099"
         fill="#ffffff"
         fill-opacity="1"
         id="rect16" /><rect
         x="3885"
         y="947"
         width="3"
         height="23.000099"
         fill="#ffffff"
         fill-opacity="1"
         id="rect17" /><rect
         x="3895"
         y="947"
         width="3"
         height="23.000099"
         fill="#ffffff"
         fill-opacity="1"
         id="rect18" /><rect
         x="3905"
         y="947"
         width="3"
         height="23.000099"
         fill="#ffffff"
         fill-opacity="1"
         id="rect19" /><rect
         x="3914"
         y="947"
         width="3"
         height="23.000099"
         fill="#ffffff"
         fill-opacity="1"
         id="rect20" /><rect
         x="3924"
         y="947"
         width="3"
         height="23.000099"
         fill="#ffffff"
         fill-opacity="1"
         id="rect21" /><path
         d="m 3928,968 65.88,-133.964 35,63.891 51.47,-98.927 51.47,92.744 14.42,-24.732 L 4208,968 Z"
         fill="#ffffff"
         fill-rule="evenodd"
         fill-opacity="1"
         id="path21" /></g></g></svg>
