<?xml version="1.0" encoding="UTF-8" standalone="no"?>
<svg
   width="9.055mm"
   height="9.0552mm"
   version="1.1"
   viewBox="0 0 9.055 9.0552"
   xml:space="preserve"
   id="svg5"
   sodipodi:docname="shield_fsa_al.svg"
   inkscape:version="1.3 (0e150ed, 2023-07-21)"
   xmlns:inkscape="http://www.inkscape.org/namespaces/inkscape"
   xmlns:sodipodi="http://sodipodi.sourceforge.net/DTD/sodipodi-0.dtd"
   xmlns="http://www.w3.org/2000/svg"
   xmlns:svg="http://www.w3.org/2000/svg"><defs
     id="defs5"><clipPath
       id="clip0"><rect
         x="1705"
         y="751"
         width="1585"
         height="1591"
         id="rect1" /></clipPath><clipPath
       id="clip0-3"><rect
         x="1631"
         y="275"
         width="1036"
         height="1040"
         id="rect1-8" /></clipPath><clipPath
       id="clip0-38"><rect
         x="-1567"
         y="632"
         width="1709"
         height="1710"
         id="rect1-0" /></clipPath></defs><sodipodi:namedview
     id="namedview5"
     pagecolor="#ffffff"
     bordercolor="#000000"
     borderopacity="0.25"
     inkscape:showpageshadow="2"
     inkscape:pageopacity="0.0"
     inkscape:pagecheckerboard="0"
     inkscape:deskcolor="#d1d1d1"
     inkscape:document-units="mm"
     inkscape:zoom="19.768377"
     inkscape:cx="13.582299"
     inkscape:cy="16.516278"
     inkscape:window-width="1520"
     inkscape:window-height="916"
     inkscape:window-x="2395"
     inkscape:window-y="350"
     inkscape:window-maximized="0"
     inkscape:current-layer="svg5" /><g
     clip-path="url(#clip0-38)"
     transform="matrix(0.00528853,0,0,0.00528853,8.3007977,-3.3303552)"
     id="g9"><path
       d="m -1564,673.848 c 0,-20.351 16.5,-36.848 36.85,-36.848 H 102.152 C 122.502,637 139,653.497 139,673.848 V 2302.15 c 0,20.35 -16.498,36.85 -36.848,36.85 H -1527.15 c -20.35,0 -36.85,-16.5 -36.85,-36.85 z"
       fill="#000000"
       fill-rule="evenodd"
       fill-opacity="1"
       id="path1" /><path
       d="M -1494.66,689 H 69.6632 c 9.0225,0 16.3367,7.314 16.3367,16.337 V 2269.66 c 0,9.03 -7.3142,16.34 -16.3367,16.34 H -1494.66 c -9.03,0 -16.34,-7.31 -16.34,-16.34 V 705.337 c 0,-9.023 7.31,-16.337 16.34,-16.337 z"
       fill="#ffffff"
       fill-rule="evenodd"
       fill-opacity="1"
       id="path2" /><path
       d="m -1454,1452.28 h 70.28 l 21.72,-70.28 21.72,70.28 h 70.28 l -56.86,43.44 21.72,70.28 -56.86,-43.44 -56.86,43.44 21.72,-70.28 z"
       fill="#000000"
       fill-rule="evenodd"
       fill-opacity="1"
       id="path3" /><path
       d="m -812,2099.28 h 70.282 L -720,2029 l 21.718,70.28 H -628 l -56.86,43.44 21.719,70.28 -56.859,-43.44 -56.859,43.44 21.719,-70.28 z"
       fill="#000000"
       fill-rule="evenodd"
       fill-opacity="1"
       id="path4" /><path
       d="m -639,875.718 h -70.282 L -731,946 -752.718,875.718 H -823 L -766.14,832.282 -787.859,762 -731,805.438 -674.141,762 -695.86,832.282 Z"
       fill="#000000"
       fill-rule="evenodd"
       fill-opacity="1"
       id="path5" /><path
       d="m -955.293,959.495 -70.187,5.653 -16.04,71.932 -27.34,-68.439 -70.19,5.654 53.29,-47.953 -27.34,-68.442 60.28,38.806 53.285,-47.953 -16.035,71.936 z"
       fill="#000000"
       fill-rule="evenodd"
       fill-opacity="1"
       id="path6" /><path
       d="m -1179.76,1173.47 -67.5,20.06 -0.79,73.7 -40.93,-61.3 -67.49,20.07 42.2,-57.95 -40.92,-61.3 67.01,25.49 42.2,-57.95 -0.79,73.69 z"
       fill="#000000"
       fill-rule="evenodd"
       fill-opacity="1"
       id="path7" /><path
       d="m -1125.86,1990.81 69.21,12.97 34.37,-65.2 8.41,73.22 69.21,12.98 -64.01,32.27 8.41,73.22 -47.97,-53.27 -64.01,32.28 34.36,-65.2 z"
       fill="#000000"
       fill-rule="evenodd"
       fill-opacity="1"
       id="path8" /><path
       d="m -1348.52,1744 66.22,23.97 44.43,-58.81 -3.52,73.62 66.22,23.97 -68.38,21.53 -3.52,73.62 -38.75,-60.31 -68.38,21.52 44.44,-58.8 z"
       fill="#000000"
       fill-rule="evenodd"
       fill-opacity="1"
       id="path9" /></g></svg>
