<?xml version="1.0" encoding="UTF-8"?>
<svg width="9.055mm" height="9.0552mm" version="1.1" viewBox="0 0 9.055 9.0552" xml:space="preserve" xmlns="http://www.w3.org/2000/svg"><g transform="translate(-81.224 -30.38)"><g transform="matrix(1.1329 0 0 1.1329 -8.8942 -2.2046)" stroke-width=".88272"><g transform="matrix(1.0037 0 0 1.0037 -.29134 -.10534)"><rect x="79.55" y="28.763" width="7.9375" height="7.9375" rx="0" ry="0" fill="#fff" style="paint-order:markers stroke fill"/><path d="m80.88 29.546-0.02875 0.28434 0.0632 0.10952-0.05633 0.09048 0.03511 0.11584-0.10458 0.08944 0.06947 0.08368 0.07613 0.13362 0.14782 0.13856 0.48406 0.20026s6.51e-4 0.19767 0.01951 0.20128c0.01886 0.0034 0.26045 0.0152 0.26045 0.0152l0.093-0.13332s-0.12817-0.0015-0.13029-0.01997c-0.0021-0.01841-0.07313-0.18672-0.07313-0.18672l0.42165 0.09115-0.13052 0.29934 0.12281 0.1091-0.01534 0.19214-0.2812-0.09094-0.25676 0.35459 0.20134-0.0256 0.04421 0.0922 0.24809 0.04936 0.18128-0.27067 0.30793 0.06993 0.09305 0.08915-0.01062 0.16941 0.20368 0.01776 0.26987-0.18998 0.11112-0.03279 0.03799 0.15974-0.0728 0.0222 0.0046 0.16488-0.08143 0.03314-0.09258-0.06136-0.49274 0.10527-0.10122 0.21429 0.3315 0.24003 0.18556-0.12516 0.62789 0.17533 0.11032 0.34376-0.29363-0.04584-0.03012 0.15946 0.29934 0.16474-0.14995 0.12335-0.31756-0.11472 0.2284 0.49363 0.66214-0.31113 0.08106 0.082-0.18073 0.37917 0.10038 0.36948 0.35937 0.16788 0.02192-0.17795 0.17019 0.03187 0.03913 0.19983-0.11912 0.36215-0.45779 0.0069 0.02514 0.22991 0.22759 0.18524 0.44037 0.0176-0.0226 0.1638-0.60237 0.11946-0.04367 0.15743 0.38492 0.12508 0.05631-0.20369 0.26585-0.0038 0.1144 0.13576-0.11119 0.15398-0.23649 0.13336-0.69125 0.0084-0.29108 0.49062 0.25238 0.14046 0.13229 0.11786h3.4965v-5.677l-0.12639-0.24179-0.08302 0.20505-0.19424-0.04013-0.1552 0.18796-0.06888 0.19669-0.15411 0.0766 0.20022 0.24781 0.02 0.23689-0.294 0.34925-0.30779-0.03406-0.26805-0.32964-0.40696-0.02503-0.0253-0.23393-0.4236-7e-3 -0.04627 0.12075-0.11588-0.09023-0.2643-0.0066-0.27011-0.40045-0.14746 0.14509-0.2624 0.46927-0.2443-0.29568-0.1633-0.30428-0.22363-0.14852-0.16964 0.0199-0.2281 0.03329-0.36456-0.1146v-0.25176l0.31773 0.05054 0.34105-0.08733 0.13686-0.16128-0.03335-0.20628-0.12239-0.207-0.10488-0.14014-0.20432-0.13653-0.10097-0.28543-0.05153 0.28016-0.3645 0.01879 0.08347-0.14767-0.08347-0.25764h-0.17525v-0.17526l-0.30564-0.04551-0.15598-0.0031z" style="paint-order:markers stroke fill"/><rect transform="matrix(.94692 0 0 .94692 4.4463 1.7507)" x="79.55" y="28.763" width="7.9375" height="7.9375" rx="0" ry="0" fill="none" stroke="#000" stroke-linecap="square" stroke-width=".09288" style="paint-order:markers stroke fill"/></g><g transform="matrix(1.0037 0 0 1.0037 -.29134 -.10534)" stroke-width=".8795"><text x="84.364487" y="30.696188" fill="#000000" font-family="'Roadgeek 2005 Series D'" font-size="2.067px" letter-spacing="0px" stroke-width=".2327" word-spacing="0px" style="font-feature-settings:normal;font-variant-caps:normal;font-variant-ligatures:normal;font-variant-numeric:normal;line-height:0.0651184px" xml:space="preserve"><tspan x="84.364487" y="30.696188" stroke-width=".2327">KT</tspan></text></g></g></g></svg>
