<?xml version="1.0" encoding="UTF-8" standalone="no"?>
<svg
   width="9.055mm"
   height="9.0552mm"
   version="1.1"
   viewBox="0 0 9.055 9.0552"
   xml:space="preserve"
   id="svg5"
   sodipodi:docname="shield_fsa_rp.svg"
   inkscape:version="1.3 (0e150ed, 2023-07-21)"
   xmlns:inkscape="http://www.inkscape.org/namespaces/inkscape"
   xmlns:sodipodi="http://sodipodi.sourceforge.net/DTD/sodipodi-0.dtd"
   xmlns="http://www.w3.org/2000/svg"
   xmlns:svg="http://www.w3.org/2000/svg"><defs
     id="defs5"><clipPath
       id="clip0"><rect
         x="1705"
         y="751"
         width="1585"
         height="1591"
         id="rect1" /></clipPath><clipPath
       id="clip0-3"><rect
         x="1631"
         y="275"
         width="1036"
         height="1040"
         id="rect1-8" /></clipPath><clipPath
       id="clip0-38"><rect
         x="-1567"
         y="632"
         width="1709"
         height="1710"
         id="rect1-0" /></clipPath><clipPath
       id="clip0-8"><rect
         x="2415"
         y="169"
         width="1036"
         height="1036"
         id="rect1-02" /></clipPath><clipPath
       id="clip1"><rect
         x="-0.45454499"
         y="-2770.8201"
         width="490451"
         height="346364"
         id="rect2" /></clipPath><clipPath
       id="clip3"><rect
         x="1088360"
         y="1891850"
         width="487602"
         height="340822"
         id="rect3" /></clipPath><clipPath
       id="clip0-39"><rect
         x="2869"
         y="527"
         width="1036"
         height="1040"
         id="rect1-05" /></clipPath><clipPath
       id="clip0-37"><rect
         x="1196"
         y="1301"
         width="1040"
         height="1041"
         id="rect1-9" /></clipPath></defs><sodipodi:namedview
     id="namedview5"
     pagecolor="#ffffff"
     bordercolor="#000000"
     borderopacity="0.25"
     inkscape:showpageshadow="2"
     inkscape:pageopacity="0.0"
     inkscape:pagecheckerboard="0"
     inkscape:deskcolor="#d1d1d1"
     inkscape:document-units="mm"
     inkscape:zoom="9.8841882"
     inkscape:cx="39.102857"
     inkscape:cy="30.402092"
     inkscape:window-width="1520"
     inkscape:window-height="916"
     inkscape:window-x="1040"
     inkscape:window-y="238"
     inkscape:window-maximized="0"
     inkscape:current-layer="g3" /><g
     clip-path="url(#clip0-37)"
     transform="matrix(0.00861456,0,0,0.00861456,-10.214514,-11.152605)"
     id="g3"><path
       d="m 1212,1362.28 c 0,-23.9 19.38,-43.28 43.28,-43.28 h 920.44 c 23.9,0 43.28,19.38 43.28,43.28 v 918.44 c 0,23.9 -19.38,43.28 -43.28,43.28 h -920.44 c -23.9,0 -43.28,-19.38 -43.28,-43.28 z"
       stroke="#000000"
       stroke-width="27.5"
       stroke-linecap="butt"
       stroke-linejoin="miter"
       stroke-miterlimit="8"
       stroke-opacity="1"
       fill="#ffffff"
       fill-rule="evenodd"
       fill-opacity="1"
       id="path1" /><path
       d="m 1215.3,1515.63 107.19,21.74 h 50.23 l 40.18,-24.94 55.24,-16.62 57.76,-2.77 40.18,-44.34 47.72,-33.25 55.24,-19.4 58.66,33.89 50.94,56.91 44.43,36.03 49.38,11.72 62.78,-11.08 37.67,-22.17 27.62,2.77 35.16,24.94 40.18,24.94 57.76,-13.86 30.13,-27.71 52.74,-8.31 2.51,-127.47 -20.09,-33.25 -27.62,-19.4 h -904.04 l -40.18,16.63 -15.07,24.94 z"
       fill="#000000"
       fill-rule="evenodd"
       fill-opacity="1"
       id="path3" /></g></svg>
