<?xml version="1.0" encoding="UTF-8" standalone="no"?>
<svg
   xmlns:dc="http://purl.org/dc/elements/1.1/"
   xmlns:cc="http://creativecommons.org/ns#"
   xmlns:rdf="http://www.w3.org/1999/02/22-rdf-syntax-ns#"
   xmlns:svg="http://www.w3.org/2000/svg"
   xmlns="http://www.w3.org/2000/svg"
   id="svg8198"
   version="1.1"
   viewBox="0 0 39.323837 7.7440763"
   height="7.7440763mm"
   width="39.323837mm">
  <defs
     id="defs8192" />
  <metadata
     id="metadata8195">
    <rdf:RDF>
      <cc:Work
         rdf:about="">
        <dc:format>image/svg+xml</dc:format>
        <dc:type
           rdf:resource="http://purl.org/dc/dcmitype/StillImage" />
        <dc:title></dc:title>
      </cc:Work>
    </rdf:RDF>
  </metadata>
  <g
     transform="translate(-10.576176,-8.8898668)"
     id="layer1">
    <g
       transform="matrix(4.1352406,0,0,4.1352406,15.268247,-18.843249)"
       id="g4826"
       style="enable-background:new">
      <g
         transform="matrix(1.2095014,0,0,1.2095014,-0.93829321,-1.6800633)"
         id="g6234">
        <g
           id="text4812"
           style="font-style:normal;font-variant:normal;font-weight:normal;font-stretch:normal;font-size:2.06555367px;line-height:6.45485497px;font-family:Gentium;-inkscape-font-specification:'Gentium, Normal';font-variant-ligatures:normal;font-variant-caps:normal;font-variant-numeric:normal;font-feature-settings:normal;text-align:start;letter-spacing:0px;word-spacing:0px;writing-mode:lr-tb;text-anchor:start;fill:#000000;fill-opacity:1;stroke:none;stroke-width:0.25819421"
           aria-label="Lemuria">
          <path
             id="path1574"
             style="font-size:1.37703586px;fill:#000000;stroke-width:0.25819421"
             d="m 3.4323828,7.9898297 q -0.00538,0.058497 -0.01412,0.1015295 -0.00807,0.043032 -0.013448,0.062531 H 2.8312744 v -0.028912 q 0.045722,-0.00941 0.071272,-0.020171 0.026223,-0.011431 0.026223,-0.020844 V 7.3772908 q 0,-0.00807 -0.024878,-0.020171 -0.024206,-0.012103 -0.072617,-0.021516 v -0.028912 h 0.3025713 v 0.028912 q -0.045722,0.00941 -0.071945,0.020844 -0.025551,0.01143 -0.025551,0.020844 v 0.6663294 q 0,0.012103 0.00538,0.021516 0.00605,0.00874 0.020171,0.015465 0.01412,0.00605 0.038326,0.00941 0.024206,0.00336 0.061187,0.00336 h 0.09615 q 0.03093,0 0.051773,-0.00336 0.021516,-0.00336 0.037653,-0.014792 0.016137,-0.012103 0.028912,-0.034964 0.013448,-0.022861 0.027568,-0.062531 l 0.028912,0.012103 z" />
          <path
             id="path1576"
             style="font-size:1.37703586px;fill:#000000;stroke-width:0.25819421"
             d="m 3.7867275,7.5783327 q -0.034291,0 -0.063204,0.013448 -0.028912,0.013448 -0.051773,0.037653 -0.022189,0.024206 -0.037653,0.058497 -0.014792,0.034291 -0.021516,0.075979 h 0.2871066 q 0.015465,0 0.020171,-0.00471 0.00538,-0.00538 0.00538,-0.019499 0,-0.012103 -0.00202,-0.028912 -0.00202,-0.01681 -0.00807,-0.034291 -0.00538,-0.018154 -0.015465,-0.035636 -0.00941,-0.017482 -0.024878,-0.03093 -0.015465,-0.01412 -0.037653,-0.022861 -0.021516,-0.00874 -0.050429,-0.00874 z m 0.2487809,0.2010418 q -0.012103,0.013448 -0.032274,0.024878 -0.020171,0.011431 -0.041688,0.020171 H 3.6078742 v 0.00202 q 0,0.050429 0.013448,0.097495 0.01412,0.046394 0.039671,0.082703 0.02555,0.035636 0.062531,0.057152 0.036981,0.021516 0.083375,0.021516 0.020844,0 0.040343,-0.00202 0.020171,-0.00269 0.043032,-0.01143 0.022861,-0.00941 0.050429,-0.027568 0.02824,-0.018154 0.065893,-0.049084 0.00874,0.00471 0.014792,0.013448 0.00672,0.00874 0.010086,0.01412 -0.045049,0.049084 -0.079341,0.079341 -0.033619,0.029585 -0.063876,0.045722 -0.029585,0.016137 -0.059169,0.020844 -0.028912,0.00538 -0.063204,0.00538 -0.051773,0 -0.09884,-0.022188 -0.046394,-0.022189 -0.08203,-0.062531 -0.035636,-0.041015 -0.057152,-0.098168 -0.020844,-0.057825 -0.020844,-0.1290972 0,-0.04505 0.010086,-0.088754 0.010086,-0.043705 0.028912,-0.082703 0.019499,-0.038998 0.047067,-0.071945 0.027568,-0.032947 0.062531,-0.057152 0.014792,-0.010086 0.032947,-0.019499 0.018827,-0.010086 0.038998,-0.017482 0.020171,-0.0074 0.03967,-0.011431 0.020171,-0.00471 0.038326,-0.00471 0.044377,0 0.077996,0.012103 0.034292,0.012103 0.059842,0.032947 0.025551,0.020171 0.043032,0.047739 0.017482,0.026895 0.02824,0.057152 0.011431,0.030257 0.016137,0.061859 0.00471,0.03093 0.00471,0.05917 z" />
          <path
             id="path1578"
             style="font-size:1.37703586px;fill:#000000;stroke-width:0.25819421"
             d="m 4.8867425,8.1538906 v -0.028912 q 0.048411,-0.012775 0.0706,-0.022188 0.022861,-0.00941 0.022861,-0.018827 v -0.35569 q 0,-0.041015 -0.00471,-0.06791 -0.00403,-0.027568 -0.013448,-0.043032 -0.00874,-0.015465 -0.023533,-0.021516 -0.01412,-0.00672 -0.034291,-0.00672 -0.022189,0 -0.047067,0.012775 -0.024878,0.012103 -0.051101,0.035636 -0.026223,0.022861 -0.053118,0.05648 -0.026223,0.032947 -0.051773,0.074634 V 8.083963 q 0,0.00941 0.020844,0.018827 0.020844,0.00874 0.073962,0.022188 V 8.15389 H 4.5068473 V 8.124978 q 0.048411,-0.012775 0.0706,-0.022188 0.022861,-0.00941 0.022861,-0.018827 V 7.7282736 q 0,-0.041015 -0.00403,-0.06791 -0.00403,-0.027568 -0.013448,-0.043032 -0.00874,-0.015465 -0.023533,-0.021516 -0.01412,-0.00672 -0.034964,-0.00672 -0.045722,0 -0.09615,0.047067 -0.049756,0.047067 -0.1069086,0.132459 V 8.083963 q 0,0.010086 0.024878,0.020844 0.02555,0.010758 0.069255,0.020171 V 8.15389 H 4.1262798 V 8.124978 q 0.044377,-0.01143 0.069255,-0.020171 0.024878,-0.00941 0.024878,-0.020844 V 7.6758279 q 0,-0.026895 -0.00269,-0.04236 -0.00202,-0.015465 -0.012103,-0.023533 -0.00941,-0.00874 -0.02824,-0.012775 -0.018827,-0.00403 -0.051101,-0.00807 v -0.026895 q 0.025551,-0.00403 0.047067,-0.00941 0.021516,-0.00605 0.041015,-0.012775 0.019499,-0.00672 0.036981,-0.014792 0.018154,-0.00807 0.036309,-0.016809 l 0.023533,0.023533 0.0074,0.1539752 q 0.030257,-0.044377 0.061187,-0.077324 0.03093,-0.033619 0.061187,-0.055808 0.030257,-0.022189 0.058497,-0.032947 0.02824,-0.01143 0.052446,-0.01143 0.032274,0 0.05917,0.00807 0.027568,0.00807 0.047067,0.026895 0.020171,0.018827 0.031602,0.049084 0.01143,0.030257 0.01143,0.075307 v 0.012775 q 0.02824,-0.04236 0.058497,-0.073962 0.030257,-0.032274 0.059842,-0.05379 0.030257,-0.022189 0.058497,-0.032947 0.028912,-0.01143 0.05379,-0.01143 0.032274,0 0.05917,0.00874 0.027568,0.00874 0.047067,0.026895 0.020172,0.018154 0.031602,0.046394 0.011431,0.027568 0.011431,0.065221 V 8.083963 q 0,0.00941 0.020844,0.018827 0.020844,0.00874 0.073962,0.022188 V 8.15389 Z" />
          <path
             id="path1580"
             style="font-size:1.37703586px;fill:#000000;stroke-width:0.25819421"
             d="m 5.9141403,8.0987554 q -0.024878,0.016137 -0.047739,0.030257 -0.022861,0.013448 -0.04236,0.023533 -0.019499,0.010086 -0.034291,0.015465 -0.014792,0.00605 -0.022861,0.00605 -0.023533,0 -0.038326,-0.030929 -0.014792,-0.031602 -0.018827,-0.1008571 -0.041688,0.041688 -0.076651,0.06791 -0.034291,0.02555 -0.063876,0.03967 -0.028912,0.01412 -0.05379,0.018827 -0.024206,0.00538 -0.045722,0.00538 -0.031602,0 -0.060514,-0.00874 -0.028912,-0.00874 -0.051101,-0.031602 -0.02219,-0.023533 -0.035637,-0.063876 -0.012775,-0.040343 -0.012775,-0.1035466 V 7.6758279 q 0,-0.032274 -0.00202,-0.049756 -0.00202,-0.018154 -0.010758,-0.026895 -0.00807,-0.00941 -0.025551,-0.012775 -0.017482,-0.00336 -0.048411,-0.00672 v -0.026895 q 0.024206,-0.00269 0.04505,-0.00672 0.021516,-0.00403 0.041015,-0.00941 0.020172,-0.00538 0.040343,-0.012103 0.020171,-0.0074 0.04236,-0.016137 l 0.018827,0.026223 v 0.3946875 q 0,0.047067 0.00672,0.078669 0.0074,0.031602 0.020171,0.050428 0.013448,0.018827 0.032274,0.026895 0.019499,0.00807 0.043705,0.00807 0.021516,0 0.043705,-0.00605 0.022861,-0.00672 0.046394,-0.020171 0.024206,-0.01412 0.050429,-0.035636 0.026223,-0.022189 0.055808,-0.053791 V 7.6758279 q 0,-0.030257 -0.00336,-0.048411 -0.00269,-0.018154 -0.012775,-0.02824 -0.010086,-0.010086 -0.028912,-0.01412 -0.018154,-0.00403 -0.049084,-0.00538 v -0.026895 q 0.048411,-0.00605 0.092789,-0.018827 0.044377,-0.012775 0.082031,-0.02555 l 0.020171,0.026223 v 0.448478 q 0,0.041688 0.00269,0.06791 0.00336,0.026223 0.012775,0.032947 0.00807,0.00538 0.027568,0.00269 0.019499,-0.00336 0.05379,-0.018154 l 0.00672,0.030257 z" />
          <path
             id="path1582"
             style="font-size:1.37703586px;fill:#000000;stroke-width:0.25819421"
             d="m 6.4426316,7.5332831 q 0.00605,0.00403 0.00538,0.023533 0,0.019499 -0.00538,0.04505 -0.00471,0.02555 -0.012775,0.052446 -0.00807,0.026895 -0.016137,0.04505 h -0.028912 q -0.00403,-0.026895 -0.01143,-0.045722 -0.0074,-0.018827 -0.017482,-0.029585 -0.00941,-0.01143 -0.021516,-0.016137 -0.011431,-0.00538 -0.024206,-0.00538 -0.014792,0 -0.034964,0.012775 -0.019499,0.012103 -0.040343,0.038998 -0.020844,0.026223 -0.041688,0.06791 -0.020171,0.041015 -0.036308,0.098168 V 8.083963 q 0,0.010086 0.024878,0.020844 0.02555,0.010758 0.088754,0.020171 V 8.15389 H 5.9618793 V 8.124978 Q 6.0062563,8.114892 6.0311343,8.105479 6.0560123,8.095393 6.0560123,8.083963 V 7.6926374 q 0,-0.022189 -0.00134,-0.036981 -0.00134,-0.015465 -0.00336,-0.024878 -0.00202,-0.00941 -0.00538,-0.014792 -0.00269,-0.00538 -0.00538,-0.00874 -0.00471,-0.00471 -0.010758,-0.0074 -0.00538,-0.00336 -0.014792,-0.00538 -0.00874,-0.00202 -0.021516,-0.00269 -0.012775,-0.00134 -0.031602,-0.00269 v -0.026895 q 0.043705,-0.01143 0.085392,-0.022861 0.04236,-0.012103 0.075979,-0.03093 l 0.023533,0.023533 0.00874,0.1526304 q 0.018154,-0.036981 0.038998,-0.069255 0.021516,-0.032274 0.045722,-0.055808 0.024206,-0.024206 0.050428,-0.037653 0.026895,-0.013448 0.055808,-0.013448 0.021516,0 0.046394,0.00538 0.024878,0.00538 0.049756,0.019499 z" />
          <path
             id="path1584"
             style="font-size:1.37703586px;fill:#000000;stroke-width:0.25819421"
             d="m 6.7324276,7.3060184 q 0,0.018827 -0.00605,0.035636 -0.00605,0.016809 -0.016809,0.029585 -0.010086,0.012103 -0.024206,0.019499 -0.01412,0.0074 -0.03093,0.0074 -0.030257,0 -0.043705,-0.016809 -0.012775,-0.016809 -0.012775,-0.047739 0,-0.018827 0.00605,-0.035636 0.00605,-0.01681 0.016809,-0.028912 0.010758,-0.012775 0.024206,-0.019499 0.01412,-0.0074 0.030257,-0.0074 0.057152,0 0.057152,0.063876 z M 6.5172658,8.1538906 v -0.028912 q 0.045722,-0.00941 0.069928,-0.020171 0.024206,-0.011431 0.024206,-0.020844 V 7.7033955 q 0,-0.034291 -0.00134,-0.055135 -0.00134,-0.021516 -0.010086,-0.032947 -0.00874,-0.012103 -0.02824,-0.017482 -0.018827,-0.00538 -0.054463,-0.00874 v -0.026895 q 0.020844,-0.00403 0.043705,-0.00941 0.023533,-0.00605 0.046394,-0.012775 0.022861,-0.0074 0.043705,-0.015465 0.020844,-0.00807 0.038326,-0.016137 h 0.022861 V 8.083963 q 0,0.00807 0.022189,0.020171 0.022861,0.011431 0.071945,0.020844 V 8.15389 Z" />
          <path
             id="path1586"
             style="font-size:1.37703586px;fill:#000000;stroke-width:0.25819421"
             d="m 7.0800487,8.0866525 q 0.040343,0 0.085392,-0.020171 0.045722,-0.020844 0.096823,-0.065221 V 7.8257688 l -0.080013,0.015465 q -0.045722,0.00807 -0.079341,0.023533 -0.032947,0.015465 -0.054463,0.036308 -0.021516,0.020844 -0.031602,0.046394 -0.010086,0.024878 -0.010086,0.052446 0,0.026895 0.00807,0.043705 0.00807,0.01681 0.019499,0.026895 0.012103,0.00941 0.024206,0.012775 0.012775,0.00336 0.021516,0.00336 z m 0.3859466,0.012103 q -0.057152,0.03967 -0.094806,0.057152 -0.036981,0.018154 -0.055808,0.018154 -0.022189,0 -0.036981,-0.030929 -0.014792,-0.03093 -0.016137,-0.085392 -0.030257,0.030257 -0.060514,0.052446 -0.030257,0.022189 -0.05917,0.036309 -0.028912,0.01412 -0.055135,0.020844 -0.025551,0.00672 -0.047067,0.00672 -0.024206,0 -0.049756,-0.00807 -0.025551,-0.00807 -0.046394,-0.025551 -0.020171,-0.017482 -0.033619,-0.045049 -0.013448,-0.027568 -0.013448,-0.066566 0,-0.039671 0.01412,-0.075307 0.014792,-0.036308 0.043032,-0.065893 0.028912,-0.029585 0.071272,-0.051101 0.04236,-0.022189 0.09884,-0.033619 l 0.1378381,-0.027568 v -0.093461 q 0,-0.022861 -0.00538,-0.04236 -0.00538,-0.020171 -0.018154,-0.034291 -0.012775,-0.014792 -0.034964,-0.022189 -0.021516,-0.00807 -0.054463,-0.0074 -0.021516,6.724e-4 -0.04236,0.0074 -0.020844,0.00672 -0.036309,0.018827 -0.015465,0.012103 -0.024206,0.028912 -0.00874,0.016137 -0.00672,0.036309 6.723e-4,0.00605 -0.01412,0.01412 -0.01412,0.0074 -0.034292,0.013448 -0.019499,0.00605 -0.038998,0.00941 -0.018827,0.00336 -0.026895,0.00134 l -0.00941,-0.026223 q 0.015465,-0.033619 0.047067,-0.064549 0.031602,-0.03093 0.071945,-0.054463 0.041015,-0.023533 0.086065,-0.037653 0.045722,-0.01412 0.088082,-0.01412 0.073962,0 0.1136324,0.038998 0.040343,0.038326 0.040343,0.107581 v 0.3792227 q 0,0.02824 0.0074,0.040343 0.0074,0.012103 0.019499,0.012103 0.00941,0 0.024206,-0.00336 0.014792,-0.00336 0.041688,-0.014792 l 0.010086,0.030257 z" />
        </g>
      </g>
      <g
         transform="matrix(0.12484685,0,0,0.12484685,-1.2561345,7.4068413)"
         id="g4820">
        <path
           id="rect4814"
           d="M 0.97302938,-5.6093616 H 25.973029 v 15 H 0.97302938 Z"
           style="opacity:1;fill:#008ec4;fill-opacity:1;fill-rule:nonzero;stroke:none;stroke-width:0.22842357;stroke-linecap:round;stroke-linejoin:round;stroke-miterlimit:4;stroke-dasharray:none;stroke-dashoffset:0;stroke-opacity:1;paint-order:stroke fill markers" />
        <g
           transform="matrix(0.01034189,0,0,0.01034189,20.982099,-5.6206146)"
           id="g4818">
          <path
             d="m -1208.0478,1141.9269 c 0.828,-1.4129 54.9788,-95.1432 120.3351,-208.28981 65.3564,-113.14654 119.13486,-205.61926 119.50772,-205.49493 0.37304,0.12434 54.70435,93.85468 120.73652,208.2897 l 120.05834,208.06364 h -241.07173 -241.07165 z m 484.49995,0 c 0.82809,-1.4129 54.9722,-95.1316 120.32028,-208.26397 65.34807,-113.13234 119.07569,-205.69515 119.39471,-205.69515 0.31902,0 54.04666,92.56281 119.3947,205.69515 65.34808,113.13237 119.49224,206.85107 120.32025,208.26397 l 1.50566,2.5686 H -483.83286 -725.05343 Z M -966.75213,724.51536 c 0,-0.51966 239.43475,-415.71363 240.14269,-416.42155 0.38831,-0.38832 52.8273,89.65846 120.74353,207.33737 66.03142,114.41311 120.17567,208.32786 120.32058,208.69946 0.14538,0.37303 -107.55772,0.67564 -240.47167,0.67564 -132.40433,0 -240.73513,-0.13096 -240.73513,-0.29092 z"
             id="path4816"
             style="fill:#ffffff;stroke-width:1.73910284" />
        </g>
      </g>
    </g>
  </g>
</svg>
